<mxfile host="65bd71144e">
    <diagram id="d2k9UJR3CmxIdJL4uFYe" name="Page-1">
        <mxGraphModel dx="2572" dy="765" grid="0" gridSize="10" guides="1" tooltips="1" connect="1" arrows="1" fold="1" page="0" pageScale="1" pageWidth="700" pageHeight="1000" math="0" shadow="0">
            <root>
                <mxCell id="0"/>
                <mxCell id="1" parent="0"/>
                <mxCell id="217" value="グローバルナビゲーション（共通・ログアウト中）" style="shape=table;startSize=26;container=1;collapsible=0;childLayout=tableLayout;fontStyle=1;align=center;shadow=0;strokeColor=#d6b656;fillColor=#fff2cc;rounded=1;" parent="1" vertex="1">
                    <mxGeometry x="948" y="43" width="571" height="52" as="geometry"/>
                </mxCell>
                <mxCell id="218" value="" style="shape=tableRow;horizontal=0;startSize=0;swimlaneHead=0;swimlaneBody=0;top=0;left=0;bottom=0;right=0;collapsible=0;dropTarget=0;fillColor=none;points=[[0,0.5],[1,0.5]];portConstraint=eastwest;shadow=0;strokeColor=default;rounded=1;" parent="217" vertex="1">
                    <mxGeometry y="26" width="571" height="26" as="geometry"/>
                </mxCell>
                <mxCell id="219" value="「ホーム」をクリック" style="shape=partialRectangle;html=1;whiteSpace=wrap;connectable=0;fillColor=none;top=0;left=0;bottom=0;right=0;overflow=hidden;shadow=0;strokeColor=default;align=center;rounded=1;" parent="218" vertex="1">
                    <mxGeometry width="191" height="26" as="geometry">
                        <mxRectangle width="191" height="26" as="alternateBounds"/>
                    </mxGeometry>
                </mxCell>
                <mxCell id="263" value="「ログイン」をクリック" style="shape=partialRectangle;html=1;whiteSpace=wrap;connectable=0;fillColor=none;top=0;left=0;bottom=0;right=0;overflow=hidden;shadow=0;strokeColor=default;align=center;rounded=1;" parent="218" vertex="1">
                    <mxGeometry x="191" width="191" height="26" as="geometry">
                        <mxRectangle width="191" height="26" as="alternateBounds"/>
                    </mxGeometry>
                </mxCell>
                <mxCell id="220" value="「新規会員登録」をクリック" style="shape=partialRectangle;html=1;whiteSpace=wrap;connectable=0;fillColor=none;top=0;left=0;bottom=0;right=0;overflow=hidden;shadow=0;strokeColor=default;align=center;rounded=1;" parent="218" vertex="1">
                    <mxGeometry x="382" width="189" height="26" as="geometry">
                        <mxRectangle width="189" height="26" as="alternateBounds"/>
                    </mxGeometry>
                </mxCell>
                <mxCell id="221" value="「アカウント」登録画面" style="swimlane;fontStyle=1;childLayout=stackLayout;horizontal=1;startSize=26;fillColor=#fff2cc;horizontalStack=0;resizeParent=1;resizeParentMax=0;resizeLast=0;collapsible=1;marginBottom=0;html=1;shadow=0;strokeColor=#d6b656;fontFamily=Helvetica;fontSize=12;rounded=1;" parent="1" vertex="1">
                    <mxGeometry x="1428" y="138" width="161" height="52" as="geometry"/>
                </mxCell>
                <mxCell id="222" value="「登録する」をクリック" style="text;strokeColor=none;fillColor=none;align=center;verticalAlign=top;spacingLeft=4;spacingRight=4;overflow=hidden;rotatable=0;points=[[0,0.5],[1,0.5]];portConstraint=eastwest;whiteSpace=wrap;html=1;shadow=0;fontFamily=Helvetica;fontSize=12;fontColor=default;startSize=30;rounded=1;" parent="221" vertex="1">
                    <mxGeometry y="26" width="161" height="26" as="geometry"/>
                </mxCell>
                <mxCell id="227" value="" style="endArrow=classic;html=1;fontFamily=Helvetica;fontSize=12;fontColor=default;startSize=30;edgeStyle=orthogonalEdgeStyle;elbow=vertical;curved=1;" parent="1" edge="1">
                    <mxGeometry width="50" height="50" relative="1" as="geometry">
                        <mxPoint x="1594" y="185" as="sourcePoint"/>
                        <mxPoint x="1592" y="158" as="targetPoint"/>
                        <Array as="points">
                            <mxPoint x="1636" y="185"/>
                            <mxPoint x="1636" y="158"/>
                        </Array>
                    </mxGeometry>
                </mxCell>
                <mxCell id="228" value="失敗" style="text;strokeColor=none;fillColor=none;align=left;verticalAlign=top;spacingLeft=4;spacingRight=4;overflow=hidden;rotatable=0;points=[[0,0.5],[1,0.5]];portConstraint=eastwest;whiteSpace=wrap;html=1;shadow=0;fontFamily=Helvetica;fontSize=10;fontColor=default;startSize=30;fontStyle=1;rounded=1;" parent="1" vertex="1">
                    <mxGeometry x="1614" y="135" width="37" height="21" as="geometry"/>
                </mxCell>
                <mxCell id="231" value="グローバルナビゲーション（顧客・ログイン中）" style="shape=table;startSize=26;container=1;collapsible=0;childLayout=tableLayout;fontStyle=1;align=center;shadow=0;strokeColor=#d6b656;fillColor=#fff2cc;rounded=1;" parent="1" vertex="1">
                    <mxGeometry x="-216" y="43" width="905" height="52" as="geometry"/>
                </mxCell>
                <mxCell id="232" value="" style="shape=tableRow;horizontal=0;startSize=0;swimlaneHead=0;swimlaneBody=0;top=0;left=0;bottom=0;right=0;collapsible=0;dropTarget=0;fillColor=none;points=[[0,0.5],[1,0.5]];portConstraint=eastwest;shadow=0;strokeColor=default;rounded=1;" parent="231" vertex="1">
                    <mxGeometry y="26" width="905" height="26" as="geometry"/>
                </mxCell>
                <mxCell id="519" value="「ホーム」をクリック" style="shape=partialRectangle;html=1;whiteSpace=wrap;connectable=0;fillColor=none;top=0;left=0;bottom=0;right=0;overflow=hidden;shadow=0;strokeColor=default;align=center;rounded=1;" parent="232" vertex="1">
                    <mxGeometry width="182" height="26" as="geometry">
                        <mxRectangle width="182" height="26" as="alternateBounds"/>
                    </mxGeometry>
                </mxCell>
                <mxCell id="284" value="「商品」をクリック" style="shape=partialRectangle;html=1;whiteSpace=wrap;connectable=0;fillColor=none;top=0;left=0;bottom=0;right=0;overflow=hidden;shadow=0;strokeColor=default;align=center;rounded=1;" parent="232" vertex="1">
                    <mxGeometry x="182" width="182" height="26" as="geometry">
                        <mxRectangle width="182" height="26" as="alternateBounds"/>
                    </mxGeometry>
                </mxCell>
                <mxCell id="283" value="「買い物かご」をクリック" style="shape=partialRectangle;html=1;whiteSpace=wrap;connectable=0;fillColor=none;top=0;left=0;bottom=0;right=0;overflow=hidden;shadow=0;strokeColor=default;align=center;rounded=1;" parent="232" vertex="1">
                    <mxGeometry x="364" width="182" height="26" as="geometry">
                        <mxRectangle width="182" height="26" as="alternateBounds"/>
                    </mxGeometry>
                </mxCell>
                <mxCell id="233" value="「お問い合わせ」をクリック" style="shape=partialRectangle;html=1;whiteSpace=wrap;connectable=0;fillColor=none;top=0;left=0;bottom=0;right=0;overflow=hidden;shadow=0;strokeColor=default;align=center;rounded=1;" parent="232" vertex="1">
                    <mxGeometry x="546" width="179" height="26" as="geometry">
                        <mxRectangle width="179" height="26" as="alternateBounds"/>
                    </mxGeometry>
                </mxCell>
                <mxCell id="234" value="「アカウント」をクリック" style="shape=partialRectangle;html=1;whiteSpace=wrap;connectable=0;fillColor=none;top=0;left=0;bottom=0;right=0;overflow=hidden;shadow=0;strokeColor=default;align=center;rounded=1;" parent="232" vertex="1">
                    <mxGeometry x="725" width="180" height="26" as="geometry">
                        <mxRectangle width="180" height="26" as="alternateBounds"/>
                    </mxGeometry>
                </mxCell>
                <mxCell id="253" value="「商品一覧」画面" style="swimlane;fontStyle=1;childLayout=stackLayout;horizontal=1;startSize=30;horizontalStack=0;resizeParent=1;resizeParentMax=0;resizeLast=0;collapsible=1;marginBottom=0;whiteSpace=wrap;html=1;shadow=0;strokeColor=#d6b656;fontFamily=Helvetica;fontSize=12;fillColor=#fff2cc;align=center;rounded=1;" parent="1" vertex="1">
                    <mxGeometry x="-212" y="367" width="193" height="60" as="geometry"/>
                </mxCell>
                <mxCell id="254" value="「詳細」をクリック" style="text;align=center;verticalAlign=middle;spacingLeft=4;spacingRight=4;overflow=hidden;points=[[0,0.5],[1,0.5]];portConstraint=eastwest;rotatable=0;whiteSpace=wrap;html=1;shadow=0;fontFamily=Helvetica;fontSize=12;strokeColor=#D6B656;rounded=1;" parent="253" vertex="1">
                    <mxGeometry y="30" width="193" height="30" as="geometry"/>
                </mxCell>
                <mxCell id="259" value="成功" style="text;strokeColor=none;fillColor=none;align=left;verticalAlign=top;spacingLeft=4;spacingRight=4;overflow=hidden;rotatable=0;points=[[0,0.5],[1,0.5]];portConstraint=eastwest;whiteSpace=wrap;html=1;shadow=0;fontFamily=Helvetica;fontSize=10;fontColor=default;startSize=30;fontStyle=1;rounded=1;" parent="1" vertex="1">
                    <mxGeometry x="1472" y="190.5" width="37" height="21" as="geometry"/>
                </mxCell>
                <mxCell id="261" value="成功" style="text;strokeColor=none;fillColor=none;align=left;verticalAlign=top;spacingLeft=4;spacingRight=4;overflow=hidden;rotatable=0;points=[[0,0.5],[1,0.5]];portConstraint=eastwest;whiteSpace=wrap;html=1;shadow=0;fontFamily=Helvetica;fontSize=10;fontColor=default;startSize=30;fontStyle=1;rounded=1;" parent="1" vertex="1">
                    <mxGeometry x="1192" y="211.5" width="37" height="21" as="geometry"/>
                </mxCell>
                <mxCell id="265" value="失敗" style="text;strokeColor=none;fillColor=none;align=left;verticalAlign=top;spacingLeft=4;spacingRight=4;overflow=hidden;rotatable=0;points=[[0,0.5],[1,0.5]];portConstraint=eastwest;whiteSpace=wrap;html=1;shadow=0;fontFamily=Helvetica;fontSize=10;fontColor=default;startSize=30;fontStyle=1;rounded=1;" parent="1" vertex="1">
                    <mxGeometry x="1309" y="148" width="37" height="21" as="geometry"/>
                </mxCell>
                <mxCell id="266" value="" style="endArrow=classic;html=1;fontFamily=Helvetica;fontSize=12;fontColor=default;startSize=30;edgeStyle=orthogonalEdgeStyle;elbow=vertical;curved=1;" parent="1" edge="1">
                    <mxGeometry width="50" height="50" relative="1" as="geometry">
                        <mxPoint x="1289" y="198" as="sourcePoint"/>
                        <mxPoint x="1287" y="171" as="targetPoint"/>
                        <Array as="points">
                            <mxPoint x="1331" y="198"/>
                            <mxPoint x="1331" y="171"/>
                        </Array>
                    </mxGeometry>
                </mxCell>
                <mxCell id="267" value="「ログイン」画面" style="swimlane;fontStyle=1;childLayout=stackLayout;horizontal=1;startSize=26;fillColor=#fff2cc;horizontalStack=0;resizeParent=1;resizeParentMax=0;resizeLast=0;collapsible=1;marginBottom=0;html=1;shadow=0;strokeColor=#d6b656;fontFamily=Helvetica;fontSize=12;rounded=1;" parent="1" vertex="1">
                    <mxGeometry x="1107" y="157" width="177" height="52" as="geometry"/>
                </mxCell>
                <mxCell id="268" value="「ログインする」をクリック" style="text;strokeColor=none;fillColor=none;align=center;verticalAlign=top;spacingLeft=4;spacingRight=4;overflow=hidden;rotatable=0;points=[[0,0.5],[1,0.5]];portConstraint=eastwest;whiteSpace=wrap;html=1;shadow=0;fontFamily=Helvetica;fontSize=12;fontColor=default;startSize=30;rounded=1;" parent="267" vertex="1">
                    <mxGeometry y="26" width="177" height="26" as="geometry"/>
                </mxCell>
                <mxCell id="343" value="「顧客情報編集」画面" style="swimlane;fontStyle=1;childLayout=stackLayout;horizontal=1;startSize=30;horizontalStack=0;resizeParent=1;resizeParentMax=0;resizeLast=0;collapsible=1;marginBottom=0;whiteSpace=wrap;html=1;shadow=0;strokeColor=#d6b656;fontFamily=Helvetica;fontSize=12;fillColor=#fff2cc;align=center;rounded=1;" parent="1" vertex="1">
                    <mxGeometry x="515" y="294" width="169" height="90" as="geometry"/>
                </mxCell>
                <mxCell id="345" value="「編集」をクリック" style="text;strokeColor=#D6B656;fillColor=none;align=center;verticalAlign=middle;spacingLeft=4;spacingRight=4;overflow=hidden;points=[[0,0.5],[1,0.5]];portConstraint=eastwest;rotatable=0;whiteSpace=wrap;html=1;shadow=0;fontFamily=Helvetica;fontSize=12;fontColor=default;rounded=1;" parent="343" vertex="1">
                    <mxGeometry y="30" width="169" height="30" as="geometry"/>
                </mxCell>
                <mxCell id="346" value="「削除」をクリック" style="text;strokeColor=#D6B656;fillColor=none;align=center;verticalAlign=middle;spacingLeft=4;spacingRight=4;overflow=hidden;points=[[0,0.5],[1,0.5]];portConstraint=eastwest;rotatable=0;whiteSpace=wrap;html=1;shadow=0;fontFamily=Helvetica;fontSize=12;fontColor=default;rounded=1;" parent="343" vertex="1">
                    <mxGeometry y="60" width="169" height="30" as="geometry"/>
                </mxCell>
                <mxCell id="347" value="「注文履歴一覧」画面" style="swimlane;fontStyle=1;childLayout=stackLayout;horizontal=1;startSize=30;horizontalStack=0;resizeParent=1;resizeParentMax=0;resizeLast=0;collapsible=1;marginBottom=0;whiteSpace=wrap;html=1;shadow=0;strokeColor=#d6b656;fontFamily=Helvetica;fontSize=12;fillColor=#fff2cc;align=center;rounded=1;" parent="1" vertex="1">
                    <mxGeometry x="73" y="461" width="180" height="60" as="geometry"/>
                </mxCell>
                <mxCell id="348" value="「注文履歴」をクリック" style="text;strokeColor=#D6B656;fillColor=none;align=center;verticalAlign=middle;spacingLeft=4;spacingRight=4;overflow=hidden;points=[[0,0.5],[1,0.5]];portConstraint=eastwest;rotatable=0;whiteSpace=wrap;html=1;shadow=0;fontFamily=Helvetica;fontSize=12;fontColor=default;rounded=1;" parent="347" vertex="1">
                    <mxGeometry y="30" width="180" height="30" as="geometry"/>
                </mxCell>
                <mxCell id="350" value="「アカウント」の項目" style="swimlane;fontStyle=1;childLayout=stackLayout;horizontal=1;startSize=30;horizontalStack=0;resizeParent=1;resizeParentMax=0;resizeLast=0;collapsible=1;marginBottom=0;whiteSpace=wrap;html=1;shadow=0;strokeColor=#d6b656;fontFamily=Helvetica;fontSize=12;fillColor=#fff2cc;align=center;rounded=1;" parent="1" vertex="1">
                    <mxGeometry x="515" y="150" width="169" height="120" as="geometry"/>
                </mxCell>
                <mxCell id="351" value="「顧客情報設定」をクリック" style="text;align=center;verticalAlign=middle;spacingLeft=4;spacingRight=4;overflow=hidden;points=[[0,0.5],[1,0.5]];portConstraint=eastwest;rotatable=0;whiteSpace=wrap;html=1;shadow=0;fontFamily=Helvetica;fontSize=12;strokeColor=#D6B656;rounded=1;" parent="350" vertex="1">
                    <mxGeometry y="30" width="169" height="30" as="geometry"/>
                </mxCell>
                <mxCell id="352" value="「注文履歴」をクリック" style="text;strokeColor=#D6B656;fillColor=none;align=center;verticalAlign=middle;spacingLeft=4;spacingRight=4;overflow=hidden;points=[[0,0.5],[1,0.5]];portConstraint=eastwest;rotatable=0;whiteSpace=wrap;html=1;shadow=0;fontFamily=Helvetica;fontSize=12;fontColor=default;rounded=1;" parent="350" vertex="1">
                    <mxGeometry y="60" width="169" height="30" as="geometry"/>
                </mxCell>
                <mxCell id="353" value="「ログアウト」をクリック" style="text;strokeColor=#D6B656;fillColor=none;align=center;verticalAlign=middle;spacingLeft=4;spacingRight=4;overflow=hidden;points=[[0,0.5],[1,0.5]];portConstraint=eastwest;rotatable=0;whiteSpace=wrap;html=1;shadow=0;fontFamily=Helvetica;fontSize=12;fontColor=default;rounded=1;" parent="350" vertex="1">
                    <mxGeometry y="90" width="169" height="30" as="geometry"/>
                </mxCell>
                <mxCell id="354" value="「商品詳細」画面" style="swimlane;fontStyle=1;childLayout=stackLayout;horizontal=1;startSize=30;horizontalStack=0;resizeParent=1;resizeParentMax=0;resizeLast=0;collapsible=1;marginBottom=0;whiteSpace=wrap;html=1;shadow=0;strokeColor=#d6b656;fontFamily=Helvetica;fontSize=12;fillColor=#fff2cc;align=center;rounded=1;" parent="1" vertex="1">
                    <mxGeometry x="-208" y="258" width="188" height="60" as="geometry"/>
                </mxCell>
                <mxCell id="355" value="「カート追加」をクリック" style="text;align=center;verticalAlign=middle;spacingLeft=4;spacingRight=4;overflow=hidden;points=[[0,0.5],[1,0.5]];portConstraint=eastwest;rotatable=0;whiteSpace=wrap;html=1;shadow=0;fontFamily=Helvetica;fontSize=12;strokeColor=#D6B656;rounded=1;" parent="354" vertex="1">
                    <mxGeometry y="30" width="188" height="30" as="geometry"/>
                </mxCell>
                <mxCell id="356" value="「買い物かご」画面" style="swimlane;fontStyle=1;childLayout=stackLayout;horizontal=1;startSize=30;horizontalStack=0;resizeParent=1;resizeParentMax=0;resizeLast=0;collapsible=1;marginBottom=0;whiteSpace=wrap;html=1;shadow=0;strokeColor=#d6b656;fontFamily=Helvetica;fontSize=12;fillColor=#fff2cc;align=center;rounded=1;" parent="1" vertex="1">
                    <mxGeometry x="70" y="148" width="173.5" height="60" as="geometry"/>
                </mxCell>
                <mxCell id="357" value="「お会計」をクリック" style="text;align=center;verticalAlign=middle;spacingLeft=4;spacingRight=4;overflow=hidden;points=[[0,0.5],[1,0.5]];portConstraint=eastwest;rotatable=0;whiteSpace=wrap;html=1;shadow=0;fontFamily=Helvetica;fontSize=12;strokeColor=#D6B656;rounded=1;" parent="356" vertex="1">
                    <mxGeometry y="30" width="173.5" height="30" as="geometry"/>
                </mxCell>
                <mxCell id="358" value="「支払い」画面" style="swimlane;fontStyle=1;childLayout=stackLayout;horizontal=1;startSize=30;horizontalStack=0;resizeParent=1;resizeParentMax=0;resizeLast=0;collapsible=1;marginBottom=0;whiteSpace=wrap;html=1;shadow=0;strokeColor=#d6b656;fontFamily=Helvetica;fontSize=12;fillColor=#fff2cc;align=center;rounded=1;" parent="1" vertex="1">
                    <mxGeometry x="68.5" y="253" width="175" height="60" as="geometry"/>
                </mxCell>
                <mxCell id="359" value="「支払う」をクリック" style="text;align=center;verticalAlign=middle;spacingLeft=4;spacingRight=4;overflow=hidden;points=[[0,0.5],[1,0.5]];portConstraint=eastwest;rotatable=0;whiteSpace=wrap;html=1;shadow=0;fontFamily=Helvetica;fontSize=12;strokeColor=#D6B656;rounded=1;" parent="358" vertex="1">
                    <mxGeometry y="30" width="175" height="30" as="geometry"/>
                </mxCell>
                <mxCell id="360" value="「支払い成功」画面" style="swimlane;fontStyle=1;childLayout=stackLayout;horizontal=1;startSize=30;horizontalStack=0;resizeParent=1;resizeParentMax=0;resizeLast=0;collapsible=1;marginBottom=0;whiteSpace=wrap;html=1;shadow=0;strokeColor=#d6b656;fontFamily=Helvetica;fontSize=12;fillColor=#fff2cc;align=center;rounded=1;" parent="1" vertex="1">
                    <mxGeometry x="70" y="358" width="177.5" height="60" as="geometry"/>
                </mxCell>
                <mxCell id="361" value="「注文履歴へ進む」をクリック" style="text;align=center;verticalAlign=middle;spacingLeft=4;spacingRight=4;overflow=hidden;points=[[0,0.5],[1,0.5]];portConstraint=eastwest;rotatable=0;whiteSpace=wrap;html=1;shadow=0;fontFamily=Helvetica;fontSize=12;strokeColor=#D6B656;rounded=1;" parent="360" vertex="1">
                    <mxGeometry y="30" width="177.5" height="30" as="geometry"/>
                </mxCell>
                <mxCell id="362" value="「注文完了」画面" style="swimlane;fontStyle=1;childLayout=stackLayout;horizontal=1;startSize=30;horizontalStack=0;resizeParent=1;resizeParentMax=0;resizeLast=0;collapsible=1;marginBottom=0;whiteSpace=wrap;html=1;shadow=0;strokeColor=#d6b656;fontFamily=Helvetica;fontSize=12;fillColor=#fff2cc;align=center;rounded=1;" parent="1" vertex="1">
                    <mxGeometry x="-213" y="466" width="194" height="60" as="geometry"/>
                </mxCell>
                <mxCell id="363" value="「商品名」をクリック" style="text;strokeColor=#D6B656;fillColor=none;align=center;verticalAlign=middle;spacingLeft=4;spacingRight=4;overflow=hidden;points=[[0,0.5],[1,0.5]];portConstraint=eastwest;rotatable=0;whiteSpace=wrap;html=1;shadow=0;fontFamily=Helvetica;fontSize=12;fontColor=default;rounded=1;" parent="362" vertex="1">
                    <mxGeometry y="30" width="194" height="30" as="geometry"/>
                </mxCell>
                <mxCell id="364" value="「問い合わせフォーム」画面" style="swimlane;fontStyle=1;childLayout=stackLayout;horizontal=1;startSize=30;horizontalStack=0;resizeParent=1;resizeParentMax=0;resizeLast=0;collapsible=1;marginBottom=0;whiteSpace=wrap;html=1;shadow=0;strokeColor=#d6b656;fontFamily=Helvetica;fontSize=12;fillColor=#fff2cc;align=center;rounded=1;" parent="1" vertex="1">
                    <mxGeometry x="277" y="150" width="174" height="60" as="geometry"/>
                </mxCell>
                <mxCell id="365" value="「送信」をクリック" style="text;align=center;verticalAlign=middle;spacingLeft=4;spacingRight=4;overflow=hidden;points=[[0,0.5],[1,0.5]];portConstraint=eastwest;rotatable=0;whiteSpace=wrap;html=1;shadow=0;fontFamily=Helvetica;fontSize=12;strokeColor=#D6B656;rounded=1;" parent="364" vertex="1">
                    <mxGeometry y="30" width="174" height="30" as="geometry"/>
                </mxCell>
                <mxCell id="366" value="" style="edgeStyle=orthogonalEdgeStyle;endArrow=classic;html=1;rounded=1;endSize=8;startSize=8;" parent="1" edge="1">
                    <mxGeometry width="50" height="50" relative="1" as="geometry">
                        <mxPoint x="1187" y="211" as="sourcePoint"/>
                        <mxPoint x="-219" y="386" as="targetPoint"/>
                        <Array as="points">
                            <mxPoint x="1185" y="211"/>
                            <mxPoint x="1185" y="622"/>
                            <mxPoint x="-234" y="622"/>
                            <mxPoint x="-234" y="386"/>
                        </Array>
                    </mxGeometry>
                </mxCell>
                <mxCell id="369" value="" style="edgeStyle=orthogonalEdgeStyle;endArrow=classic;html=1;rounded=1;endSize=8;startSize=8;" parent="1" edge="1">
                    <mxGeometry width="50" height="50" relative="1" as="geometry">
                        <mxPoint x="1510" y="192" as="sourcePoint"/>
                        <mxPoint x="-219" y="371" as="targetPoint"/>
                        <Array as="points">
                            <mxPoint x="1510" y="639"/>
                            <mxPoint x="-253" y="639"/>
                            <mxPoint x="-253" y="371"/>
                        </Array>
                    </mxGeometry>
                </mxCell>
                <mxCell id="370" value="" style="edgeStyle=segmentEdgeStyle;endArrow=classic;html=1;curved=0;rounded=1;endSize=8;startSize=8;labelBackgroundColor=default;strokeColor=default;fontFamily=Helvetica;fontSize=11;fontColor=default;shape=connector;" parent="1" edge="1">
                    <mxGeometry width="50" height="50" relative="1" as="geometry">
                        <mxPoint x="-116" y="361" as="sourcePoint"/>
                        <mxPoint x="-116" y="325" as="targetPoint"/>
                        <Array as="points">
                            <mxPoint x="-116" y="340"/>
                            <mxPoint x="-116" y="340"/>
                        </Array>
                    </mxGeometry>
                </mxCell>
                <mxCell id="371" value="" style="edgeStyle=elbowEdgeStyle;elbow=vertical;endArrow=classic;html=1;curved=0;rounded=1;endSize=8;startSize=8;labelBackgroundColor=default;strokeColor=default;fontFamily=Helvetica;fontSize=11;fontColor=default;shape=connector;" parent="1" edge="1">
                    <mxGeometry width="50" height="50" relative="1" as="geometry">
                        <mxPoint x="44" y="95" as="sourcePoint"/>
                        <mxPoint x="-18" y="384" as="targetPoint"/>
                        <Array as="points">
                            <mxPoint x="24" y="384"/>
                        </Array>
                    </mxGeometry>
                </mxCell>
                <mxCell id="372" value="" style="edgeStyle=elbowEdgeStyle;elbow=vertical;endArrow=classic;html=1;curved=0;rounded=1;endSize=8;startSize=8;labelBackgroundColor=default;strokeColor=default;fontFamily=Helvetica;fontSize=11;fontColor=default;shape=connector;entryX=-0.035;entryY=-0.267;entryDx=0;entryDy=0;entryPerimeter=0;" parent="1" target="357" edge="1">
                    <mxGeometry width="50" height="50" relative="1" as="geometry">
                        <mxPoint x="-99" y="253" as="sourcePoint"/>
                        <mxPoint x="106" y="195" as="targetPoint"/>
                        <Array as="points">
                            <mxPoint x="-16" y="170"/>
                            <mxPoint x="-95" y="182"/>
                        </Array>
                    </mxGeometry>
                </mxCell>
                <mxCell id="378" value="" style="endArrow=classic;html=1;fontFamily=Helvetica;fontSize=12;fontColor=default;startSize=30;edgeStyle=elbowEdgeStyle;elbow=vertical;entryX=0.458;entryY=0;entryDx=0;entryDy=0;entryPerimeter=0;" parent="1" target="491" edge="1">
                    <mxGeometry width="50" height="50" relative="1" as="geometry">
                        <mxPoint x="1051.5" y="95" as="sourcePoint"/>
                        <mxPoint x="975" y="152" as="targetPoint"/>
                        <Array as="points">
                            <mxPoint x="1016" y="119"/>
                        </Array>
                    </mxGeometry>
                </mxCell>
                <mxCell id="388" value="" style="endArrow=classic;html=1;fontFamily=Helvetica;fontSize=12;fontColor=default;startSize=30;fontStyle=1" parent="1" edge="1">
                    <mxGeometry width="50" height="50" relative="1" as="geometry">
                        <mxPoint x="156.25" y="237" as="sourcePoint"/>
                        <mxPoint x="156.25" y="250" as="targetPoint"/>
                        <Array as="points">
                            <mxPoint x="156.25" y="208"/>
                        </Array>
                    </mxGeometry>
                </mxCell>
                <mxCell id="390" value="" style="endArrow=classic;html=1;fontFamily=Helvetica;fontSize=12;fontColor=default;startSize=30;fontStyle=0" parent="1" edge="1">
                    <mxGeometry width="50" height="50" relative="1" as="geometry">
                        <mxPoint x="155.5" y="347" as="sourcePoint"/>
                        <mxPoint x="155.5" y="360" as="targetPoint"/>
                        <Array as="points">
                            <mxPoint x="155.5" y="318"/>
                        </Array>
                    </mxGeometry>
                </mxCell>
                <mxCell id="391" value="" style="endArrow=classic;html=1;fontFamily=Helvetica;fontSize=12;fontColor=default;startSize=30;" parent="1" edge="1">
                    <mxGeometry width="50" height="50" relative="1" as="geometry">
                        <mxPoint x="155.5" y="447" as="sourcePoint"/>
                        <mxPoint x="155.5" y="460" as="targetPoint"/>
                        <Array as="points">
                            <mxPoint x="155.5" y="418"/>
                        </Array>
                    </mxGeometry>
                </mxCell>
                <mxCell id="394" value="失敗" style="text;strokeColor=none;fillColor=none;align=left;verticalAlign=top;spacingLeft=4;spacingRight=4;overflow=hidden;rotatable=0;points=[[0,0.5],[1,0.5]];portConstraint=eastwest;whiteSpace=wrap;html=1;shadow=0;fontFamily=Helvetica;fontSize=10;fontColor=default;startSize=30;fontStyle=1;rounded=1;" parent="1" vertex="1">
                    <mxGeometry x="708" y="147" width="37" height="21" as="geometry"/>
                </mxCell>
                <mxCell id="402" value="" style="edgeStyle=segmentEdgeStyle;endArrow=classic;html=1;curved=0;rounded=1;endSize=8;startSize=8;labelBackgroundColor=default;strokeColor=default;fontFamily=Helvetica;fontSize=11;fontColor=default;shape=connector;" parent="1" edge="1">
                    <mxGeometry width="50" height="50" relative="1" as="geometry">
                        <mxPoint x="-213" y="511" as="sourcePoint"/>
                        <mxPoint x="-213" y="276" as="targetPoint"/>
                        <Array as="points">
                            <mxPoint x="-276" y="511"/>
                            <mxPoint x="-276" y="276"/>
                        </Array>
                    </mxGeometry>
                </mxCell>
                <mxCell id="403" value="失敗" style="text;strokeColor=none;fillColor=none;align=left;verticalAlign=top;spacingLeft=4;spacingRight=4;overflow=hidden;rotatable=0;points=[[0,0.5],[1,0.5]];portConstraint=eastwest;whiteSpace=wrap;html=1;shadow=0;fontFamily=Helvetica;fontSize=10;fontColor=default;startSize=30;fontStyle=1;rounded=1;" parent="1" vertex="1">
                    <mxGeometry x="277" y="249" width="37" height="21" as="geometry"/>
                </mxCell>
                <mxCell id="404" value="" style="endArrow=classic;html=1;fontFamily=Helvetica;fontSize=12;fontColor=default;startSize=30;edgeStyle=orthogonalEdgeStyle;elbow=vertical;curved=1;" parent="1" edge="1">
                    <mxGeometry width="50" height="50" relative="1" as="geometry">
                        <mxPoint x="255" y="303" as="sourcePoint"/>
                        <mxPoint x="253" y="276" as="targetPoint"/>
                        <Array as="points">
                            <mxPoint x="297" y="303"/>
                            <mxPoint x="297" y="276"/>
                        </Array>
                    </mxGeometry>
                </mxCell>
                <mxCell id="406" value="成功" style="text;strokeColor=none;fillColor=none;align=left;verticalAlign=top;spacingLeft=4;spacingRight=4;overflow=hidden;rotatable=0;points=[[0,0.5],[1,0.5]];portConstraint=eastwest;whiteSpace=wrap;html=1;shadow=0;fontFamily=Helvetica;fontSize=10;fontColor=default;startSize=30;fontStyle=1;rounded=1;" parent="1" vertex="1">
                    <mxGeometry x="173" y="322" width="37" height="21" as="geometry"/>
                </mxCell>
                <mxCell id="409" value="" style="edgeStyle=segmentEdgeStyle;endArrow=classic;html=1;curved=0;rounded=1;endSize=8;startSize=8;labelBackgroundColor=default;strokeColor=default;fontFamily=Helvetica;fontSize=11;fontColor=default;shape=connector;exitX=-0.043;exitY=0.667;exitDx=0;exitDy=0;exitPerimeter=0;" parent="1" source="348" edge="1">
                    <mxGeometry width="50" height="50" relative="1" as="geometry">
                        <mxPoint x="28" y="554" as="sourcePoint"/>
                        <mxPoint x="-15" y="474" as="targetPoint"/>
                        <Array as="points">
                            <mxPoint x="20" y="511"/>
                            <mxPoint x="20" y="474"/>
                        </Array>
                    </mxGeometry>
                </mxCell>
                <mxCell id="410" value="" style="edgeStyle=segmentEdgeStyle;endArrow=classic;html=1;curved=0;rounded=1;endSize=8;startSize=8;labelBackgroundColor=default;strokeColor=default;fontFamily=Helvetica;fontSize=11;fontColor=default;shape=connector;exitX=-0.043;exitY=0.667;exitDx=0;exitDy=0;exitPerimeter=0;entryX=1.046;entryY=0.333;entryDx=0;entryDy=0;entryPerimeter=0;" parent="1" target="348" edge="1">
                    <mxGeometry width="50" height="50" relative="1" as="geometry">
                        <mxPoint x="515" y="231.01" as="sourcePoint"/>
                        <mxPoint x="366" y="503" as="targetPoint"/>
                        <Array as="points">
                            <mxPoint x="457" y="231"/>
                            <mxPoint x="457" y="390"/>
                            <mxPoint x="366" y="390"/>
                            <mxPoint x="366" y="501"/>
                        </Array>
                    </mxGeometry>
                </mxCell>
                <mxCell id="411" value="" style="edgeStyle=elbowEdgeStyle;elbow=horizontal;endArrow=classic;html=1;curved=0;rounded=1;endSize=8;startSize=8;labelBackgroundColor=default;strokeColor=default;fontFamily=Helvetica;fontSize=11;fontColor=default;shape=connector;exitX=1.024;exitY=0.5;exitDx=0;exitDy=0;exitPerimeter=0;" parent="1" source="351" edge="1">
                    <mxGeometry width="50" height="50" relative="1" as="geometry">
                        <mxPoint x="712" y="450" as="sourcePoint"/>
                        <mxPoint x="688" y="309" as="targetPoint"/>
                        <Array as="points">
                            <mxPoint x="719" y="252"/>
                            <mxPoint x="718" y="305"/>
                            <mxPoint x="718" y="415"/>
                            <mxPoint x="718" y="288"/>
                        </Array>
                    </mxGeometry>
                </mxCell>
                <mxCell id="413" value="" style="endArrow=classic;html=1;fontFamily=Helvetica;fontSize=12;fontColor=default;startSize=30;edgeStyle=orthogonalEdgeStyle;elbow=vertical;curved=1;exitX=1.024;exitY=0.4;exitDx=0;exitDy=0;exitPerimeter=0;" parent="1" source="353" edge="1">
                    <mxGeometry width="50" height="50" relative="1" as="geometry">
                        <mxPoint x="701" y="252" as="sourcePoint"/>
                        <mxPoint x="688" y="172" as="targetPoint"/>
                        <Array as="points">
                            <mxPoint x="746" y="252"/>
                            <mxPoint x="746" y="172"/>
                        </Array>
                    </mxGeometry>
                </mxCell>
                <mxCell id="414" value="" style="edgeStyle=orthogonalEdgeStyle;endArrow=classic;html=1;rounded=1;endSize=8;startSize=8;labelBackgroundColor=default;strokeColor=default;fontFamily=Helvetica;fontSize=11;fontColor=default;shape=connector;" parent="1" edge="1">
                    <mxGeometry width="50" height="50" relative="1" as="geometry">
                        <mxPoint x="510" y="254" as="sourcePoint"/>
                        <mxPoint x="929" y="215" as="targetPoint"/>
                        <Array as="points">
                            <mxPoint x="417" y="254"/>
                            <mxPoint x="417" y="460"/>
                            <mxPoint x="847" y="460"/>
                            <mxPoint x="847" y="238"/>
                            <mxPoint x="929" y="238"/>
                        </Array>
                    </mxGeometry>
                </mxCell>
                <mxCell id="415" value="成功" style="text;strokeColor=none;fillColor=none;align=left;verticalAlign=top;spacingLeft=4;spacingRight=4;overflow=hidden;rotatable=0;points=[[0,0.5],[1,0.5]];portConstraint=eastwest;whiteSpace=wrap;html=1;shadow=0;fontFamily=Helvetica;fontSize=10;fontColor=default;startSize=30;fontStyle=1;rounded=1;" parent="1" vertex="1">
                    <mxGeometry x="380" y="217" width="37" height="21" as="geometry"/>
                </mxCell>
                <mxCell id="417" value="失敗" style="text;strokeColor=none;fillColor=none;align=left;verticalAlign=top;spacingLeft=4;spacingRight=4;overflow=hidden;rotatable=0;points=[[0,0.5],[1,0.5]];portConstraint=eastwest;whiteSpace=wrap;html=1;shadow=0;fontFamily=Helvetica;fontSize=10;fontColor=default;startSize=30;fontStyle=1;rounded=1;" parent="1" vertex="1">
                    <mxGeometry x="732" y="328.5" width="37" height="21" as="geometry"/>
                </mxCell>
                <mxCell id="418" value="" style="endArrow=classic;html=1;fontFamily=Helvetica;fontSize=12;fontColor=default;startSize=30;edgeStyle=orthogonalEdgeStyle;elbow=vertical;curved=1;" parent="1" edge="1">
                    <mxGeometry width="50" height="50" relative="1" as="geometry">
                        <mxPoint x="691" y="345" as="sourcePoint"/>
                        <mxPoint x="689" y="318" as="targetPoint"/>
                        <Array as="points">
                            <mxPoint x="731" y="345"/>
                            <mxPoint x="731" y="318"/>
                        </Array>
                    </mxGeometry>
                </mxCell>
                <mxCell id="422" value="失敗" style="text;strokeColor=none;fillColor=none;align=left;verticalAlign=top;spacingLeft=4;spacingRight=4;overflow=hidden;rotatable=0;points=[[0,0.5],[1,0.5]];portConstraint=eastwest;whiteSpace=wrap;html=1;shadow=0;fontFamily=Helvetica;fontSize=10;fontColor=default;startSize=30;fontStyle=1;rounded=1;" parent="1" vertex="1">
                    <mxGeometry x="476" y="322" width="37" height="21" as="geometry"/>
                </mxCell>
                <mxCell id="423" value="" style="endArrow=classic;html=1;fontFamily=Helvetica;fontSize=12;fontColor=default;startSize=30;edgeStyle=orthogonalEdgeStyle;elbow=vertical;curved=1;" parent="1" edge="1">
                    <mxGeometry width="50" height="50" relative="1" as="geometry">
                        <mxPoint x="510" y="372" as="sourcePoint"/>
                        <mxPoint x="508" y="312" as="targetPoint"/>
                        <Array as="points">
                            <mxPoint x="463" y="372"/>
                            <mxPoint x="463" y="312"/>
                        </Array>
                    </mxGeometry>
                </mxCell>
                <mxCell id="491" value="「ホーム」画面" style="swimlane;fontStyle=1;childLayout=stackLayout;horizontal=1;startSize=26;fillColor=#fff2cc;horizontalStack=0;resizeParent=1;resizeParentMax=0;resizeLast=0;collapsible=1;marginBottom=0;html=1;shadow=0;strokeColor=#d6b656;fontFamily=Helvetica;fontSize=12;rounded=1;" parent="1" vertex="1">
                    <mxGeometry x="894" y="157" width="177" height="52" as="geometry"/>
                </mxCell>
                <mxCell id="492" value="「商品を探す」をクリック" style="text;strokeColor=none;fillColor=none;align=center;verticalAlign=top;spacingLeft=4;spacingRight=4;overflow=hidden;rotatable=0;points=[[0,0.5],[1,0.5]];portConstraint=eastwest;whiteSpace=wrap;html=1;shadow=0;fontFamily=Helvetica;fontSize=12;fontColor=default;startSize=30;rounded=1;" parent="491" vertex="1">
                    <mxGeometry y="26" width="177" height="26" as="geometry"/>
                </mxCell>
                <mxCell id="493" value="" style="edgeStyle=elbowEdgeStyle;elbow=horizontal;endArrow=classic;html=1;curved=0;rounded=1;endSize=8;startSize=8;labelBackgroundColor=default;strokeColor=default;fontFamily=Helvetica;fontSize=11;fontColor=default;shape=connector;" parent="1" edge="1">
                    <mxGeometry width="50" height="50" relative="1" as="geometry">
                        <mxPoint x="688" y="367" as="sourcePoint"/>
                        <mxPoint x="891" y="169" as="targetPoint"/>
                        <Array as="points">
                            <mxPoint x="777" y="277"/>
                            <mxPoint x="740.16" y="395.55"/>
                        </Array>
                    </mxGeometry>
                </mxCell>
                <mxCell id="494" value="成功" style="text;strokeColor=none;fillColor=none;align=left;verticalAlign=top;spacingLeft=4;spacingRight=4;overflow=hidden;rotatable=0;points=[[0,0.5],[1,0.5]];portConstraint=eastwest;whiteSpace=wrap;html=1;shadow=0;fontFamily=Helvetica;fontSize=10;fontColor=default;startSize=30;fontStyle=1;rounded=1;" parent="1" vertex="1">
                    <mxGeometry x="695" y="375" width="37" height="21" as="geometry"/>
                </mxCell>
                <mxCell id="496" value="成功" style="text;strokeColor=none;fillColor=none;align=left;verticalAlign=top;spacingLeft=4;spacingRight=4;overflow=hidden;rotatable=0;points=[[0,0.5],[1,0.5]];portConstraint=eastwest;whiteSpace=wrap;html=1;shadow=0;fontFamily=Helvetica;fontSize=10;fontColor=default;startSize=30;fontStyle=1;rounded=1;" parent="1" vertex="1">
                    <mxGeometry x="487" y="389" width="37" height="21" as="geometry"/>
                </mxCell>
                <mxCell id="495" value="" style="edgeStyle=orthogonalEdgeStyle;elbow=horizontal;endArrow=classic;html=1;rounded=1;endSize=8;startSize=8;labelBackgroundColor=default;strokeColor=default;fontFamily=Helvetica;fontSize=11;fontColor=default;shape=connector;" parent="1" edge="1">
                    <mxGeometry width="50" height="50" relative="1" as="geometry">
                        <mxPoint x="516.5" y="368" as="sourcePoint"/>
                        <mxPoint x="890" y="157" as="targetPoint"/>
                        <Array as="points">
                            <mxPoint x="480" y="368"/>
                            <mxPoint x="480" y="434"/>
                            <mxPoint x="804" y="434"/>
                            <mxPoint x="804" y="157"/>
                        </Array>
                    </mxGeometry>
                </mxCell>
                <mxCell id="505" value="「商品一覧」画面" style="swimlane;fontStyle=1;childLayout=stackLayout;horizontal=1;startSize=30;horizontalStack=0;resizeParent=1;resizeParentMax=0;resizeLast=0;collapsible=1;marginBottom=0;whiteSpace=wrap;html=1;shadow=0;strokeColor=#d6b656;fontFamily=Helvetica;fontSize=12;fillColor=#fff2cc;align=center;rounded=1;" parent="1" vertex="1">
                    <mxGeometry x="889" y="279.27" width="183" height="120" as="geometry"/>
                </mxCell>
                <mxCell id="731" value="「詳細」をクリック" style="text;align=center;verticalAlign=middle;spacingLeft=4;spacingRight=4;overflow=hidden;points=[[0,0.5],[1,0.5]];portConstraint=eastwest;rotatable=0;whiteSpace=wrap;html=1;shadow=0;fontFamily=Helvetica;fontSize=12;strokeColor=#D6B656;rounded=1;" vertex="1" parent="505">
                    <mxGeometry y="30" width="183" height="30" as="geometry"/>
                </mxCell>
                <mxCell id="732" value="「レビューを見る」をクリック" style="text;align=center;verticalAlign=middle;spacingLeft=4;spacingRight=4;overflow=hidden;points=[[0,0.5],[1,0.5]];portConstraint=eastwest;rotatable=0;whiteSpace=wrap;html=1;shadow=0;fontFamily=Helvetica;fontSize=12;strokeColor=#D6B656;rounded=1;" vertex="1" parent="505">
                    <mxGeometry y="60" width="183" height="30" as="geometry"/>
                </mxCell>
                <mxCell id="506" value="「レビューを書く」をクリック" style="text;align=center;verticalAlign=middle;spacingLeft=4;spacingRight=4;overflow=hidden;points=[[0,0.5],[1,0.5]];portConstraint=eastwest;rotatable=0;whiteSpace=wrap;html=1;shadow=0;fontFamily=Helvetica;fontSize=12;strokeColor=#D6B656;rounded=1;" parent="505" vertex="1">
                    <mxGeometry y="90" width="183" height="30" as="geometry"/>
                </mxCell>
                <mxCell id="512" value="" style="endArrow=classic;html=1;fontFamily=Helvetica;fontSize=12;fontColor=default;startSize=30;edgeStyle=elbowEdgeStyle;elbow=vertical;fontStyle=0" parent="1" edge="1">
                    <mxGeometry width="50" height="50" relative="1" as="geometry">
                        <mxPoint x="-112" y="97" as="sourcePoint"/>
                        <mxPoint x="-447" y="200" as="targetPoint"/>
                        <Array as="points">
                            <mxPoint x="-122" y="130"/>
                            <mxPoint x="-108" y="135"/>
                            <mxPoint x="-199" y="135"/>
                            <mxPoint x="-356" y="134.87"/>
                        </Array>
                    </mxGeometry>
                </mxCell>
                <mxCell id="513" value="「ホーム」画面" style="swimlane;fontStyle=1;childLayout=stackLayout;horizontal=1;startSize=26;fillColor=#fff2cc;horizontalStack=0;resizeParent=1;resizeParentMax=0;resizeLast=0;collapsible=1;marginBottom=0;html=1;shadow=0;strokeColor=#d6b656;fontFamily=Helvetica;fontSize=12;rounded=1;" parent="1" vertex="1">
                    <mxGeometry x="-541" y="203" width="183" height="59" as="geometry"/>
                </mxCell>
                <mxCell id="514" value="「商品を探す」をクリック" style="text;strokeColor=none;fillColor=none;align=center;verticalAlign=middle;spacingLeft=4;spacingRight=4;overflow=hidden;rotatable=0;points=[[0,0.5],[1,0.5]];portConstraint=eastwest;whiteSpace=wrap;html=1;shadow=0;fontFamily=Helvetica;fontSize=12;fontColor=default;startSize=30;rounded=1;" parent="513" vertex="1">
                    <mxGeometry y="26" width="183" height="33" as="geometry"/>
                </mxCell>
                <mxCell id="515" value="「商品詳細」画面" style="swimlane;fontStyle=1;childLayout=stackLayout;horizontal=1;startSize=30;horizontalStack=0;resizeParent=1;resizeParentMax=0;resizeLast=0;collapsible=1;marginBottom=0;whiteSpace=wrap;html=1;shadow=0;strokeColor=#d6b656;fontFamily=Helvetica;fontSize=12;fillColor=#fff2cc;align=center;rounded=1;" parent="1" vertex="1">
                    <mxGeometry x="-552" y="482" width="206" height="120" as="geometry"/>
                </mxCell>
                <mxCell id="740" value="「カート追加」をクリック" style="text;align=center;verticalAlign=middle;spacingLeft=4;spacingRight=4;overflow=hidden;points=[[0,0.5],[1,0.5]];portConstraint=eastwest;rotatable=0;whiteSpace=wrap;html=1;shadow=0;fontFamily=Helvetica;fontSize=12;strokeColor=#D6B656;rounded=1;" vertex="1" parent="515">
                    <mxGeometry y="30" width="206" height="30" as="geometry"/>
                </mxCell>
                <mxCell id="741" value="「レビューを保存する」をクリック" style="text;align=center;verticalAlign=middle;spacingLeft=4;spacingRight=4;overflow=hidden;points=[[0,0.5],[1,0.5]];portConstraint=eastwest;rotatable=0;whiteSpace=wrap;html=1;shadow=0;fontFamily=Helvetica;fontSize=12;strokeColor=#D6B656;rounded=1;" vertex="1" parent="515">
                    <mxGeometry y="60" width="206" height="30" as="geometry"/>
                </mxCell>
                <mxCell id="516" value="「他のレビューを見る」をクリック" style="text;align=center;verticalAlign=middle;spacingLeft=4;spacingRight=4;overflow=hidden;points=[[0,0.5],[1,0.5]];portConstraint=eastwest;rotatable=0;whiteSpace=wrap;html=1;shadow=0;fontFamily=Helvetica;fontSize=12;strokeColor=#D6B656;rounded=1;" parent="515" vertex="1">
                    <mxGeometry y="90" width="206" height="30" as="geometry"/>
                </mxCell>
                <mxCell id="517" value="「商品一覧」画面" style="swimlane;fontStyle=1;childLayout=stackLayout;horizontal=1;startSize=30;horizontalStack=0;resizeParent=1;resizeParentMax=0;resizeLast=0;collapsible=1;marginBottom=0;whiteSpace=wrap;html=1;shadow=0;strokeColor=#d6b656;fontFamily=Helvetica;fontSize=12;fillColor=#fff2cc;align=center;rounded=1;" parent="1" vertex="1">
                    <mxGeometry x="-541" y="304.13" width="180" height="120" as="geometry"/>
                </mxCell>
                <mxCell id="685" value="「詳細」をクリック" style="text;align=center;verticalAlign=middle;spacingLeft=4;spacingRight=4;overflow=hidden;points=[[0,0.5],[1,0.5]];portConstraint=eastwest;rotatable=0;whiteSpace=wrap;html=1;shadow=0;fontFamily=Helvetica;fontSize=12;strokeColor=#D6B656;rounded=1;" parent="517" vertex="1">
                    <mxGeometry y="30" width="180" height="30" as="geometry"/>
                </mxCell>
                <mxCell id="686" value="「レビューを見る」をクリック" style="text;align=center;verticalAlign=middle;spacingLeft=4;spacingRight=4;overflow=hidden;points=[[0,0.5],[1,0.5]];portConstraint=eastwest;rotatable=0;whiteSpace=wrap;html=1;shadow=0;fontFamily=Helvetica;fontSize=12;strokeColor=#D6B656;rounded=1;" parent="517" vertex="1">
                    <mxGeometry y="60" width="180" height="30" as="geometry"/>
                </mxCell>
                <mxCell id="518" value="「レビューを書く」をクリック" style="text;align=center;verticalAlign=middle;spacingLeft=4;spacingRight=4;overflow=hidden;points=[[0,0.5],[1,0.5]];portConstraint=eastwest;rotatable=0;whiteSpace=wrap;html=1;shadow=0;fontFamily=Helvetica;fontSize=12;strokeColor=#D6B656;rounded=1;" parent="517" vertex="1">
                    <mxGeometry y="90" width="180" height="30" as="geometry"/>
                </mxCell>
                <mxCell id="396" value="" style="endArrow=classic;html=1;fontFamily=Helvetica;fontSize=12;fontColor=default;startSize=30;edgeStyle=elbowEdgeStyle;elbow=vertical;entryX=0.425;entryY=0;entryDx=0;entryDy=0;entryPerimeter=0;" parent="1" target="364" edge="1">
                    <mxGeometry width="50" height="50" relative="1" as="geometry">
                        <mxPoint x="440.5" y="97" as="sourcePoint"/>
                        <mxPoint x="393" y="147" as="targetPoint"/>
                        <Array as="points">
                            <mxPoint x="344" y="120"/>
                            <mxPoint x="494" y="117"/>
                            <mxPoint x="415" y="119"/>
                            <mxPoint x="325" y="132"/>
                            <mxPoint x="346" y="122"/>
                            <mxPoint x="296" y="129"/>
                            <mxPoint x="272" y="129"/>
                        </Array>
                    </mxGeometry>
                </mxCell>
                <mxCell id="521" value="" style="endArrow=classic;html=1;fontFamily=Helvetica;fontSize=12;fontColor=default;startSize=30;" parent="1" edge="1">
                    <mxGeometry width="50" height="50" relative="1" as="geometry">
                        <mxPoint x="599" y="96" as="sourcePoint"/>
                        <mxPoint x="599" y="147" as="targetPoint"/>
                        <Array as="points">
                            <mxPoint x="599" y="102"/>
                        </Array>
                    </mxGeometry>
                </mxCell>
                <mxCell id="522" value="" style="endArrow=classic;html=1;fontFamily=Helvetica;fontSize=12;fontColor=default;startSize=30;edgeStyle=elbowEdgeStyle;elbow=vertical;entryX=0.425;entryY=0;entryDx=0;entryDy=0;entryPerimeter=0;" parent="1" edge="1">
                    <mxGeometry width="50" height="50" relative="1" as="geometry">
                        <mxPoint x="247.5" y="94" as="sourcePoint"/>
                        <mxPoint x="157.94999999999982" y="147" as="targetPoint"/>
                        <Array as="points">
                            <mxPoint x="151" y="117"/>
                            <mxPoint x="301" y="114"/>
                            <mxPoint x="222" y="116"/>
                            <mxPoint x="132" y="129"/>
                            <mxPoint x="153" y="119"/>
                            <mxPoint x="103" y="126"/>
                            <mxPoint x="79" y="126"/>
                        </Array>
                    </mxGeometry>
                </mxCell>
                <mxCell id="525" value="失敗" style="text;strokeColor=none;fillColor=none;align=left;verticalAlign=top;spacingLeft=4;spacingRight=4;overflow=hidden;rotatable=0;points=[[0,0.5],[1,0.5]];portConstraint=eastwest;whiteSpace=wrap;html=1;shadow=0;fontFamily=Helvetica;fontSize=10;fontColor=default;startSize=30;fontStyle=1;rounded=1;" parent="1" vertex="1">
                    <mxGeometry x="466" y="141" width="37" height="21" as="geometry"/>
                </mxCell>
                <mxCell id="526" value="" style="endArrow=classic;html=1;fontFamily=Helvetica;fontSize=12;fontColor=default;startSize=30;edgeStyle=orthogonalEdgeStyle;elbow=vertical;curved=1;" parent="1" edge="1">
                    <mxGeometry width="50" height="50" relative="1" as="geometry">
                        <mxPoint x="456" y="196" as="sourcePoint"/>
                        <mxPoint x="454" y="169" as="targetPoint"/>
                        <Array as="points">
                            <mxPoint x="498" y="196"/>
                            <mxPoint x="498" y="169"/>
                        </Array>
                    </mxGeometry>
                </mxCell>
                <mxCell id="527" value="" style="edgeStyle=segmentEdgeStyle;endArrow=classic;html=1;curved=0;rounded=1;endSize=8;startSize=8;labelBackgroundColor=default;strokeColor=default;fontFamily=Helvetica;fontSize=11;fontColor=default;shape=connector;" parent="1" edge="1">
                    <mxGeometry width="50" height="50" relative="1" as="geometry">
                        <mxPoint x="-454" y="266" as="sourcePoint"/>
                        <mxPoint x="-454" y="302" as="targetPoint"/>
                        <Array as="points">
                            <mxPoint x="-454" y="281"/>
                            <mxPoint x="-454" y="281"/>
                        </Array>
                    </mxGeometry>
                </mxCell>
                <mxCell id="533" value="" style="edgeStyle=segmentEdgeStyle;endArrow=classic;html=1;curved=0;rounded=1;endSize=8;startSize=8;labelBackgroundColor=default;strokeColor=default;fontFamily=Helvetica;fontSize=11;fontColor=default;shape=connector;fontStyle=0" parent="1" edge="1" target="515">
                    <mxGeometry width="50" height="50" relative="1" as="geometry">
                        <mxPoint x="-546" y="354" as="sourcePoint"/>
                        <mxPoint x="-552" y="500" as="targetPoint"/>
                        <Array as="points">
                            <mxPoint x="-567" y="354"/>
                            <mxPoint x="-567" y="456"/>
                            <mxPoint x="-407" y="456"/>
                        </Array>
                    </mxGeometry>
                </mxCell>
                <mxCell id="534" value="" style="edgeStyle=segmentEdgeStyle;endArrow=classic;html=1;curved=0;rounded=1;endSize=8;startSize=8;exitX=0.557;exitY=0.933;exitDx=0;exitDy=0;exitPerimeter=0;fontStyle=0" parent="1" source="365" edge="1">
                    <mxGeometry width="50" height="50" relative="1" as="geometry">
                        <mxPoint x="372" y="220" as="sourcePoint"/>
                        <mxPoint x="-353" y="217" as="targetPoint"/>
                        <Array as="points">
                            <mxPoint x="374" y="229"/>
                            <mxPoint x="-252" y="229"/>
                            <mxPoint x="-252" y="217"/>
                        </Array>
                    </mxGeometry>
                </mxCell>
                <mxCell id="535" value="成功" style="text;strokeColor=none;fillColor=none;align=left;verticalAlign=top;spacingLeft=4;spacingRight=4;overflow=hidden;rotatable=0;points=[[0,0.5],[1,0.5]];portConstraint=eastwest;whiteSpace=wrap;html=1;shadow=0;fontFamily=Helvetica;fontSize=10;fontColor=default;startSize=30;fontStyle=1;rounded=1;" parent="1" vertex="1">
                    <mxGeometry x="478" y="258.27" width="37" height="21" as="geometry"/>
                </mxCell>
                <mxCell id="536" value="グローバルナビゲーション（管理者・ログイン中）" style="shape=table;startSize=26;container=1;collapsible=0;childLayout=tableLayout;fontStyle=1;align=center;shadow=0;strokeColor=#d6b656;fillColor=#fff2cc;rounded=1;" parent="1" vertex="1">
                    <mxGeometry x="1788" y="43" width="905" height="52" as="geometry"/>
                </mxCell>
                <mxCell id="537" value="" style="shape=tableRow;horizontal=0;startSize=0;swimlaneHead=0;swimlaneBody=0;top=0;left=0;bottom=0;right=0;collapsible=0;dropTarget=0;fillColor=none;points=[[0,0.5],[1,0.5]];portConstraint=eastwest;shadow=0;strokeColor=default;rounded=1;" parent="536" vertex="1">
                    <mxGeometry y="26" width="905" height="26" as="geometry"/>
                </mxCell>
                <mxCell id="538" value="「ホーム」をクリック" style="shape=partialRectangle;html=1;whiteSpace=wrap;connectable=0;fillColor=none;top=0;left=0;bottom=0;right=0;overflow=hidden;shadow=0;strokeColor=default;align=center;rounded=1;" parent="537" vertex="1">
                    <mxGeometry width="182" height="26" as="geometry">
                        <mxRectangle width="182" height="26" as="alternateBounds"/>
                    </mxGeometry>
                </mxCell>
                <mxCell id="539" value="「注文履歴」をクリック" style="shape=partialRectangle;html=1;whiteSpace=wrap;connectable=0;fillColor=none;top=0;left=0;bottom=0;right=0;overflow=hidden;shadow=0;strokeColor=default;align=center;rounded=1;" parent="537" vertex="1">
                    <mxGeometry x="182" width="182" height="26" as="geometry">
                        <mxRectangle width="182" height="26" as="alternateBounds"/>
                    </mxGeometry>
                </mxCell>
                <mxCell id="540" value="「顧客情報」をクリック" style="shape=partialRectangle;html=1;whiteSpace=wrap;connectable=0;fillColor=none;top=0;left=0;bottom=0;right=0;overflow=hidden;shadow=0;strokeColor=default;align=center;rounded=1;" parent="537" vertex="1">
                    <mxGeometry x="364" width="182" height="26" as="geometry">
                        <mxRectangle width="182" height="26" as="alternateBounds"/>
                    </mxGeometry>
                </mxCell>
                <mxCell id="541" value="「商品」をクリック" style="shape=partialRectangle;html=1;whiteSpace=wrap;connectable=0;fillColor=none;top=0;left=0;bottom=0;right=0;overflow=hidden;shadow=0;strokeColor=default;align=center;rounded=1;" parent="537" vertex="1">
                    <mxGeometry x="546" width="179" height="26" as="geometry">
                        <mxRectangle width="179" height="26" as="alternateBounds"/>
                    </mxGeometry>
                </mxCell>
                <mxCell id="542" value="「アカウント」をクリック" style="shape=partialRectangle;html=1;whiteSpace=wrap;connectable=0;fillColor=none;top=0;left=0;bottom=0;right=0;overflow=hidden;shadow=0;strokeColor=default;align=center;rounded=1;" parent="537" vertex="1">
                    <mxGeometry x="725" width="180" height="26" as="geometry">
                        <mxRectangle width="180" height="26" as="alternateBounds"/>
                    </mxGeometry>
                </mxCell>
                <mxCell id="547" value="「アカウント」の項目" style="swimlane;fontStyle=1;childLayout=stackLayout;horizontal=1;startSize=30;horizontalStack=0;resizeParent=1;resizeParentMax=0;resizeLast=0;collapsible=1;marginBottom=0;whiteSpace=wrap;html=1;shadow=0;strokeColor=#d6b656;fontFamily=Helvetica;fontSize=12;fillColor=#fff2cc;align=center;rounded=1;" parent="1" vertex="1">
                    <mxGeometry x="2999" y="141" width="169" height="60" as="geometry"/>
                </mxCell>
                <mxCell id="550" value="「ログアウト」をクリック" style="text;strokeColor=#D6B656;fillColor=none;align=center;verticalAlign=middle;spacingLeft=4;spacingRight=4;overflow=hidden;points=[[0,0.5],[1,0.5]];portConstraint=eastwest;rotatable=0;whiteSpace=wrap;html=1;shadow=0;fontFamily=Helvetica;fontSize=12;fontColor=default;rounded=1;" parent="547" vertex="1">
                    <mxGeometry y="30" width="169" height="30" as="geometry"/>
                </mxCell>
                <mxCell id="553" value="" style="endArrow=classic;html=1;fontFamily=Helvetica;fontSize=12;fontColor=default;startSize=30;edgeStyle=orthogonalEdgeStyle;elbow=vertical;curved=1;" parent="1" edge="1">
                    <mxGeometry width="50" height="50" relative="1" as="geometry">
                        <mxPoint x="3173" y="187.5" as="sourcePoint"/>
                        <mxPoint x="3171" y="160.5" as="targetPoint"/>
                        <Array as="points">
                            <mxPoint x="3215" y="187.5"/>
                            <mxPoint x="3215" y="160.5"/>
                        </Array>
                    </mxGeometry>
                </mxCell>
                <mxCell id="554" value="失敗" style="text;strokeColor=none;fillColor=none;align=left;verticalAlign=top;spacingLeft=4;spacingRight=4;overflow=hidden;rotatable=0;points=[[0,0.5],[1,0.5]];portConstraint=eastwest;whiteSpace=wrap;html=1;shadow=0;fontFamily=Helvetica;fontSize=10;fontColor=default;startSize=30;fontStyle=1;rounded=1;" parent="1" vertex="1">
                    <mxGeometry x="3193" y="137.5" width="37" height="21" as="geometry"/>
                </mxCell>
                <mxCell id="570" value="「商品詳細」画面" style="swimlane;fontStyle=1;childLayout=stackLayout;horizontal=1;startSize=30;horizontalStack=0;resizeParent=1;resizeParentMax=0;resizeLast=0;collapsible=1;marginBottom=0;whiteSpace=wrap;html=1;shadow=0;strokeColor=#d6b656;fontFamily=Helvetica;fontSize=12;fillColor=#fff2cc;align=center;rounded=1;" parent="1" vertex="1">
                    <mxGeometry x="1589" y="415.5" width="183" height="60" as="geometry"/>
                </mxCell>
                <mxCell id="571" value="「カート追加」をクリック" style="text;align=center;verticalAlign=middle;spacingLeft=4;spacingRight=4;overflow=hidden;points=[[0,0.5],[1,0.5]];portConstraint=eastwest;rotatable=0;whiteSpace=wrap;html=1;shadow=0;fontFamily=Helvetica;fontSize=12;strokeColor=#D6B656;rounded=1;" parent="570" vertex="1">
                    <mxGeometry y="30" width="183" height="30" as="geometry"/>
                </mxCell>
                <mxCell id="572" value="「商品一覧」画面" style="swimlane;fontStyle=1;childLayout=stackLayout;horizontal=1;startSize=30;horizontalStack=0;resizeParent=1;resizeParentMax=0;resizeLast=0;collapsible=1;marginBottom=0;whiteSpace=wrap;html=1;shadow=0;strokeColor=#d6b656;fontFamily=Helvetica;fontSize=12;fillColor=#fff2cc;align=center;rounded=1;" parent="1" vertex="1">
                    <mxGeometry x="1589" y="307.63" width="180" height="60" as="geometry"/>
                </mxCell>
                <mxCell id="573" value="「詳細」をクリック" style="text;align=center;verticalAlign=middle;spacingLeft=4;spacingRight=4;overflow=hidden;points=[[0,0.5],[1,0.5]];portConstraint=eastwest;rotatable=0;whiteSpace=wrap;html=1;shadow=0;fontFamily=Helvetica;fontSize=12;strokeColor=#D6B656;rounded=1;" parent="572" vertex="1">
                    <mxGeometry y="30" width="180" height="30" as="geometry"/>
                </mxCell>
                <mxCell id="574" value="" style="edgeStyle=segmentEdgeStyle;endArrow=classic;html=1;curved=0;rounded=1;endSize=8;startSize=8;labelBackgroundColor=default;strokeColor=default;fontFamily=Helvetica;fontSize=11;fontColor=default;shape=connector;" parent="1" edge="1">
                    <mxGeometry width="50" height="50" relative="1" as="geometry">
                        <mxPoint x="1678.5" y="266.5" as="sourcePoint"/>
                        <mxPoint x="1678.5" y="302.5" as="targetPoint"/>
                        <Array as="points">
                            <mxPoint x="1678.5" y="281.5"/>
                            <mxPoint x="1678.5" y="281.5"/>
                        </Array>
                    </mxGeometry>
                </mxCell>
                <mxCell id="575" value="" style="edgeStyle=segmentEdgeStyle;endArrow=classic;html=1;curved=0;rounded=1;endSize=8;startSize=8;labelBackgroundColor=default;strokeColor=default;fontFamily=Helvetica;fontSize=11;fontColor=default;shape=connector;" parent="1" edge="1">
                    <mxGeometry width="50" height="50" relative="1" as="geometry">
                        <mxPoint x="1678.5" y="374.5000000000001" as="sourcePoint"/>
                        <mxPoint x="1678.5" y="410.5000000000001" as="targetPoint"/>
                        <Array as="points">
                            <mxPoint x="1679" y="410.5"/>
                            <mxPoint x="1679" y="410.5"/>
                        </Array>
                    </mxGeometry>
                </mxCell>
                <mxCell id="579" value="「ホーム」画面" style="swimlane;fontStyle=1;childLayout=stackLayout;horizontal=1;startSize=26;fillColor=#fff2cc;horizontalStack=0;resizeParent=1;resizeParentMax=0;resizeLast=0;collapsible=1;marginBottom=0;html=1;shadow=0;strokeColor=#d6b656;fontFamily=Helvetica;fontSize=12;rounded=1;" parent="1" vertex="1">
                    <mxGeometry x="1590" y="205.5" width="183" height="59" as="geometry"/>
                </mxCell>
                <mxCell id="580" value="「商品を探す」をクリック" style="text;strokeColor=none;fillColor=none;align=center;verticalAlign=middle;spacingLeft=4;spacingRight=4;overflow=hidden;rotatable=0;points=[[0,0.5],[1,0.5]];portConstraint=eastwest;whiteSpace=wrap;html=1;shadow=0;fontFamily=Helvetica;fontSize=12;fontColor=default;startSize=30;rounded=1;" parent="579" vertex="1">
                    <mxGeometry y="26" width="183" height="33" as="geometry"/>
                </mxCell>
                <mxCell id="584" value="" style="endArrow=classic;html=1;fontFamily=Helvetica;fontSize=12;fontColor=default;startSize=30;" parent="1" edge="1">
                    <mxGeometry width="50" height="50" relative="1" as="geometry">
                        <mxPoint x="978.5" y="214" as="sourcePoint"/>
                        <mxPoint x="978.5" y="277" as="targetPoint"/>
                        <Array as="points">
                            <mxPoint x="978.5" y="212"/>
                        </Array>
                    </mxGeometry>
                </mxCell>
                <mxCell id="585" value="" style="edgeStyle=orthogonalEdgeStyle;endArrow=classic;html=1;rounded=1;endSize=8;startSize=8;labelBackgroundColor=default;strokeColor=default;fontFamily=Helvetica;fontSize=11;fontColor=default;shape=connector;exitX=-0.027;exitY=0.5;exitDx=0;exitDy=0;exitPerimeter=0;" parent="1" source="571" edge="1">
                    <mxGeometry width="50" height="50" relative="1" as="geometry">
                        <mxPoint x="1527" y="436" as="sourcePoint"/>
                        <mxPoint x="1157" y="154.5" as="targetPoint"/>
                        <Array as="points">
                            <mxPoint x="1562" y="461"/>
                            <mxPoint x="1562" y="274"/>
                            <mxPoint x="1366" y="274"/>
                            <mxPoint x="1366" y="118"/>
                            <mxPoint x="1155" y="118"/>
                            <mxPoint x="1155" y="150"/>
                            <mxPoint x="1157" y="150"/>
                        </Array>
                    </mxGeometry>
                </mxCell>
                <mxCell id="587" value="" style="endArrow=classic;html=1;fontFamily=Helvetica;fontSize=12;fontColor=default;startSize=30;" parent="1" edge="1">
                    <mxGeometry width="50" height="50" relative="1" as="geometry">
                        <mxPoint x="1224.26" y="95" as="sourcePoint"/>
                        <mxPoint x="1224.0007407407409" y="155" as="targetPoint"/>
                        <Array as="points">
                            <mxPoint x="1224.26" y="127"/>
                        </Array>
                    </mxGeometry>
                </mxCell>
                <mxCell id="588" value="「商品一覧」画面" style="swimlane;fontStyle=1;childLayout=stackLayout;horizontal=1;startSize=30;horizontalStack=0;resizeParent=1;resizeParentMax=0;resizeLast=0;collapsible=1;marginBottom=0;whiteSpace=wrap;html=1;shadow=0;strokeColor=#d6b656;fontFamily=Helvetica;fontSize=12;fillColor=#fff2cc;align=center;rounded=1;" parent="1" vertex="1">
                    <mxGeometry x="2740" y="198.5" width="166" height="150" as="geometry"/>
                </mxCell>
                <mxCell id="593" value="「詳細」をクリック" style="text;align=center;verticalAlign=middle;spacingLeft=4;spacingRight=4;overflow=hidden;points=[[0,0.5],[1,0.5]];portConstraint=eastwest;rotatable=0;whiteSpace=wrap;html=1;shadow=0;fontFamily=Helvetica;fontSize=12;strokeColor=#D6B656;rounded=1;" parent="588" vertex="1">
                    <mxGeometry y="30" width="166" height="30" as="geometry"/>
                </mxCell>
                <mxCell id="594" value="「編集」をクリック" style="text;align=center;verticalAlign=middle;spacingLeft=4;spacingRight=4;overflow=hidden;points=[[0,0.5],[1,0.5]];portConstraint=eastwest;rotatable=0;whiteSpace=wrap;html=1;shadow=0;fontFamily=Helvetica;fontSize=12;strokeColor=#D6B656;rounded=1;" parent="588" vertex="1">
                    <mxGeometry y="60" width="166" height="30" as="geometry"/>
                </mxCell>
                <mxCell id="595" value="「削除」をクリック" style="text;align=center;verticalAlign=middle;spacingLeft=4;spacingRight=4;overflow=hidden;points=[[0,0.5],[1,0.5]];portConstraint=eastwest;rotatable=0;whiteSpace=wrap;html=1;shadow=0;fontFamily=Helvetica;fontSize=12;strokeColor=#D6B656;rounded=1;" parent="588" vertex="1">
                    <mxGeometry y="90" width="166" height="30" as="geometry"/>
                </mxCell>
                <mxCell id="589" value="「登録」をクリック" style="text;align=center;verticalAlign=middle;spacingLeft=4;spacingRight=4;overflow=hidden;points=[[0,0.5],[1,0.5]];portConstraint=eastwest;rotatable=0;whiteSpace=wrap;html=1;shadow=0;fontFamily=Helvetica;fontSize=12;strokeColor=#D6B656;rounded=1;" parent="588" vertex="1">
                    <mxGeometry y="120" width="166" height="30" as="geometry"/>
                </mxCell>
                <mxCell id="596" value="" style="endArrow=classic;html=1;fontFamily=Helvetica;fontSize=12;fontColor=default;startSize=30;edgeStyle=elbowEdgeStyle;elbow=vertical;entryX=0.462;entryY=0;entryDx=0;entryDy=0;entryPerimeter=0;exitX=0.897;exitY=1;exitDx=0;exitDy=0;exitPerimeter=0;" parent="1" source="537" target="547" edge="1">
                    <mxGeometry width="50" height="50" relative="1" as="geometry">
                        <mxPoint x="2701.0000000000005" y="90" as="sourcePoint"/>
                        <mxPoint x="2624.5660000000003" y="152" as="targetPoint"/>
                        <Array as="points">
                            <mxPoint x="2761.57" y="122"/>
                        </Array>
                    </mxGeometry>
                </mxCell>
                <mxCell id="597" value="" style="edgeStyle=orthogonalEdgeStyle;endArrow=classic;html=1;rounded=1;endSize=8;startSize=8;labelBackgroundColor=default;strokeColor=default;fontFamily=Helvetica;fontSize=11;fontColor=default;shape=connector;exitX=-0.024;exitY=0.467;exitDx=0;exitDy=0;exitPerimeter=0;" parent="1" source="550" edge="1">
                    <mxGeometry width="50" height="50" relative="1" as="geometry">
                        <mxPoint x="2937" y="336" as="sourcePoint"/>
                        <mxPoint x="925" y="157" as="targetPoint"/>
                        <Array as="points">
                            <mxPoint x="2937" y="185"/>
                            <mxPoint x="2937" y="603"/>
                            <mxPoint x="815" y="603"/>
                            <mxPoint x="815" y="125"/>
                            <mxPoint x="925" y="125"/>
                        </Array>
                    </mxGeometry>
                </mxCell>
                <mxCell id="598" value="成功" style="text;strokeColor=none;fillColor=none;align=left;verticalAlign=top;spacingLeft=4;spacingRight=4;overflow=hidden;rotatable=0;points=[[0,0.5],[1,0.5]];portConstraint=eastwest;whiteSpace=wrap;html=1;shadow=0;fontFamily=Helvetica;fontSize=10;fontColor=default;startSize=30;fontStyle=1;rounded=1;" parent="1" vertex="1">
                    <mxGeometry x="2957" y="155" width="37" height="21" as="geometry"/>
                </mxCell>
                <mxCell id="599" value="「商品詳細」画面" style="swimlane;fontStyle=1;childLayout=stackLayout;horizontal=1;startSize=26;fillColor=#fff2cc;horizontalStack=0;resizeParent=1;resizeParentMax=0;resizeLast=0;collapsible=1;marginBottom=0;html=1;shadow=0;strokeColor=#d6b656;fontFamily=Helvetica;fontSize=12;rounded=1;" parent="1" vertex="1">
                    <mxGeometry x="2409" y="173" width="183" height="56" as="geometry"/>
                </mxCell>
                <mxCell id="600" value="「商品更新」をクリック" style="text;strokeColor=none;fillColor=none;align=center;verticalAlign=middle;spacingLeft=4;spacingRight=4;overflow=hidden;rotatable=0;points=[[0,0.5],[1,0.5]];portConstraint=eastwest;whiteSpace=wrap;html=1;shadow=0;fontFamily=Helvetica;fontSize=12;fontColor=default;startSize=30;rounded=1;" parent="599" vertex="1">
                    <mxGeometry y="26" width="183" height="30" as="geometry"/>
                </mxCell>
                <mxCell id="601" value="「商品編集」画面" style="swimlane;fontStyle=1;childLayout=stackLayout;horizontal=1;startSize=26;fillColor=#fff2cc;horizontalStack=0;resizeParent=1;resizeParentMax=0;resizeLast=0;collapsible=1;marginBottom=0;html=1;shadow=0;strokeColor=#d6b656;fontFamily=Helvetica;fontSize=12;rounded=1;" parent="1" vertex="1">
                    <mxGeometry x="2409" y="270.13" width="183" height="58" as="geometry"/>
                </mxCell>
                <mxCell id="602" value="「更新」をクリック" style="text;strokeColor=none;fillColor=none;align=center;verticalAlign=middle;spacingLeft=4;spacingRight=4;overflow=hidden;rotatable=0;points=[[0,0.5],[1,0.5]];portConstraint=eastwest;whiteSpace=wrap;html=1;shadow=0;fontFamily=Helvetica;fontSize=12;fontColor=default;startSize=30;rounded=1;" parent="601" vertex="1">
                    <mxGeometry y="26" width="183" height="32" as="geometry"/>
                </mxCell>
                <mxCell id="605" value="「商品削除」画面" style="swimlane;fontStyle=1;childLayout=stackLayout;horizontal=1;startSize=26;fillColor=#fff2cc;horizontalStack=0;resizeParent=1;resizeParentMax=0;resizeLast=0;collapsible=1;marginBottom=0;html=1;shadow=0;strokeColor=#d6b656;fontFamily=Helvetica;fontSize=12;rounded=1;" parent="1" vertex="1">
                    <mxGeometry x="2409" y="375" width="183" height="59" as="geometry"/>
                </mxCell>
                <mxCell id="606" value="「削除」をクリック" style="text;strokeColor=none;fillColor=none;align=center;verticalAlign=middle;spacingLeft=4;spacingRight=4;overflow=hidden;rotatable=0;points=[[0,0.5],[1,0.5]];portConstraint=eastwest;whiteSpace=wrap;html=1;shadow=0;fontFamily=Helvetica;fontSize=12;fontColor=default;startSize=30;rounded=1;" parent="605" vertex="1">
                    <mxGeometry y="26" width="183" height="33" as="geometry"/>
                </mxCell>
                <mxCell id="607" value="" style="endArrow=classic;html=1;fontFamily=Helvetica;fontSize=12;fontColor=default;startSize=30;edgeStyle=orthogonalEdgeStyle;elbow=vertical;curved=1;" parent="1" edge="1">
                    <mxGeometry width="50" height="50" relative="1" as="geometry">
                        <mxPoint x="2599" y="421.76" as="sourcePoint"/>
                        <mxPoint x="2597" y="394.76" as="targetPoint"/>
                        <Array as="points">
                            <mxPoint x="2641" y="421.76"/>
                            <mxPoint x="2641" y="394.76"/>
                        </Array>
                    </mxGeometry>
                </mxCell>
                <mxCell id="609" value="「商品登録」画面" style="swimlane;fontStyle=1;childLayout=stackLayout;horizontal=1;startSize=26;fillColor=#fff2cc;horizontalStack=0;resizeParent=1;resizeParentMax=0;resizeLast=0;collapsible=1;marginBottom=0;html=1;shadow=0;strokeColor=#d6b656;fontFamily=Helvetica;fontSize=12;rounded=1;" parent="1" vertex="1">
                    <mxGeometry x="2409" y="476" width="183" height="59" as="geometry"/>
                </mxCell>
                <mxCell id="610" value="「新規登録」をクリック" style="text;strokeColor=none;fillColor=none;align=center;verticalAlign=middle;spacingLeft=4;spacingRight=4;overflow=hidden;rotatable=0;points=[[0,0.5],[1,0.5]];portConstraint=eastwest;whiteSpace=wrap;html=1;shadow=0;fontFamily=Helvetica;fontSize=12;fontColor=default;startSize=30;rounded=1;" parent="609" vertex="1">
                    <mxGeometry y="26" width="183" height="33" as="geometry"/>
                </mxCell>
                <mxCell id="611" value="" style="endArrow=classic;html=1;fontFamily=Helvetica;fontSize=12;fontColor=default;startSize=30;edgeStyle=orthogonalEdgeStyle;elbow=vertical;curved=1;" parent="1" edge="1">
                    <mxGeometry width="50" height="50" relative="1" as="geometry">
                        <mxPoint x="2597" y="521.5400000000001" as="sourcePoint"/>
                        <mxPoint x="2595" y="494.5400000000001" as="targetPoint"/>
                        <Array as="points">
                            <mxPoint x="2639" y="521.54"/>
                            <mxPoint x="2639" y="494.53999999999996"/>
                        </Array>
                    </mxGeometry>
                </mxCell>
                <mxCell id="613" value="" style="endArrow=classic;html=1;fontFamily=Helvetica;fontSize=12;fontColor=default;startSize=30;edgeStyle=elbowEdgeStyle;elbow=vertical;entryX=0.486;entryY=0;entryDx=0;entryDy=0;entryPerimeter=0;" parent="1" target="579" edge="1">
                    <mxGeometry width="50" height="50" relative="1" as="geometry">
                        <mxPoint x="1868.4299999999998" y="93" as="sourcePoint"/>
                        <mxPoint x="1791.9959999999996" y="155" as="targetPoint"/>
                        <Array as="points">
                            <mxPoint x="1832.9299999999998" y="117"/>
                        </Array>
                    </mxGeometry>
                </mxCell>
                <mxCell id="633" value="" style="endArrow=classic;html=1;fontFamily=Helvetica;fontSize=12;fontColor=default;startSize=30;edgeStyle=orthogonalEdgeStyle;elbow=vertical;curved=1;" parent="1" edge="1">
                    <mxGeometry width="50" height="50" relative="1" as="geometry">
                        <mxPoint x="2597" y="316" as="sourcePoint"/>
                        <mxPoint x="2595" y="289" as="targetPoint"/>
                        <Array as="points">
                            <mxPoint x="2639" y="316"/>
                            <mxPoint x="2639" y="289"/>
                        </Array>
                    </mxGeometry>
                </mxCell>
                <mxCell id="636" value="" style="endArrow=classic;html=1;fontFamily=Helvetica;fontSize=12;fontColor=default;startSize=30;edgeStyle=elbowEdgeStyle;elbow=vertical;entryX=0.43;entryY=-0.007;entryDx=0;entryDy=0;entryPerimeter=0;" parent="1" target="588" edge="1">
                    <mxGeometry width="50" height="50" relative="1" as="geometry">
                        <mxPoint x="2419" y="97" as="sourcePoint"/>
                        <mxPoint x="2311.998" y="155" as="targetPoint"/>
                        <Array as="points">
                            <mxPoint x="2569" y="148"/>
                            <mxPoint x="2427" y="144"/>
                            <mxPoint x="2445" y="147"/>
                            <mxPoint x="2610" y="147"/>
                            <mxPoint x="2435" y="117"/>
                            <mxPoint x="2389.99" y="117"/>
                        </Array>
                    </mxGeometry>
                </mxCell>
                <mxCell id="637" value="失敗" style="text;strokeColor=none;fillColor=none;align=left;verticalAlign=top;spacingLeft=4;spacingRight=4;overflow=hidden;rotatable=0;points=[[0,0.5],[1,0.5]];portConstraint=eastwest;whiteSpace=wrap;html=1;shadow=0;fontFamily=Helvetica;fontSize=10;fontColor=default;startSize=30;fontStyle=1;rounded=1;" parent="1" vertex="1">
                    <mxGeometry x="2623" y="265.5" width="37" height="21" as="geometry"/>
                </mxCell>
                <mxCell id="638" value="失敗" style="text;strokeColor=none;fillColor=none;align=left;verticalAlign=top;spacingLeft=4;spacingRight=4;overflow=hidden;rotatable=0;points=[[0,0.5],[1,0.5]];portConstraint=eastwest;whiteSpace=wrap;html=1;shadow=0;fontFamily=Helvetica;fontSize=10;fontColor=default;startSize=30;fontStyle=1;rounded=1;" parent="1" vertex="1">
                    <mxGeometry x="2628" y="368.5" width="37" height="21" as="geometry"/>
                </mxCell>
                <mxCell id="639" value="失敗" style="text;strokeColor=none;fillColor=none;align=left;verticalAlign=top;spacingLeft=4;spacingRight=4;overflow=hidden;rotatable=0;points=[[0,0.5],[1,0.5]];portConstraint=eastwest;whiteSpace=wrap;html=1;shadow=0;fontFamily=Helvetica;fontSize=10;fontColor=default;startSize=30;fontStyle=1;rounded=1;" parent="1" vertex="1">
                    <mxGeometry x="2625" y="471.5" width="37" height="21" as="geometry"/>
                </mxCell>
                <mxCell id="643" value="" style="edgeStyle=segmentEdgeStyle;endArrow=classic;html=1;curved=0;rounded=1;endSize=8;startSize=8;labelBackgroundColor=default;strokeColor=default;fontFamily=Helvetica;fontSize=11;fontColor=default;shape=connector;" parent="1" edge="1">
                    <mxGeometry width="50" height="50" relative="1" as="geometry">
                        <mxPoint x="2500" y="234.13" as="sourcePoint"/>
                        <mxPoint x="2500" y="270.13" as="targetPoint"/>
                        <Array as="points">
                            <mxPoint x="2500" y="265.13"/>
                            <mxPoint x="2500" y="265.13"/>
                        </Array>
                    </mxGeometry>
                </mxCell>
                <mxCell id="647" value="" style="edgeStyle=elbowEdgeStyle;elbow=horizontal;endArrow=classic;html=1;curved=0;rounded=1;endSize=8;startSize=8;labelBackgroundColor=default;strokeColor=default;fontFamily=Helvetica;fontSize=11;fontColor=default;shape=connector;" parent="1" edge="1">
                    <mxGeometry width="50" height="50" relative="1" as="geometry">
                        <mxPoint x="2406" y="323" as="sourcePoint"/>
                        <mxPoint x="2406" y="196" as="targetPoint"/>
                        <Array as="points">
                            <mxPoint x="2374" y="261"/>
                            <mxPoint x="2375" y="263"/>
                            <mxPoint x="2373" y="273"/>
                            <mxPoint x="2373" y="269"/>
                            <mxPoint x="2441.94" y="326.5"/>
                            <mxPoint x="2442.94" y="273.5"/>
                        </Array>
                    </mxGeometry>
                </mxCell>
                <mxCell id="648" value="成功" style="text;strokeColor=none;fillColor=none;align=left;verticalAlign=top;spacingLeft=4;spacingRight=4;overflow=hidden;rotatable=0;points=[[0,0.5],[1,0.5]];portConstraint=eastwest;whiteSpace=wrap;html=1;shadow=0;fontFamily=Helvetica;fontSize=10;fontColor=default;startSize=30;fontStyle=1;rounded=1;" parent="1" vertex="1">
                    <mxGeometry x="2377" y="297" width="37" height="21" as="geometry"/>
                </mxCell>
                <mxCell id="649" value="" style="edgeStyle=elbowEdgeStyle;elbow=horizontal;endArrow=classic;html=1;curved=0;rounded=1;endSize=8;startSize=8;labelBackgroundColor=default;strokeColor=default;fontFamily=Helvetica;fontSize=11;fontColor=default;shape=connector;" parent="1" edge="1">
                    <mxGeometry width="50" height="50" relative="1" as="geometry">
                        <mxPoint x="2406" y="323" as="sourcePoint"/>
                        <mxPoint x="2406" y="196" as="targetPoint"/>
                        <Array as="points">
                            <mxPoint x="2374" y="261"/>
                            <mxPoint x="2375" y="263"/>
                            <mxPoint x="2373" y="273"/>
                            <mxPoint x="2373" y="269"/>
                            <mxPoint x="2441.94" y="326.5"/>
                            <mxPoint x="2442.94" y="273.5"/>
                        </Array>
                    </mxGeometry>
                </mxCell>
                <mxCell id="650" value="成功" style="text;strokeColor=none;fillColor=none;align=left;verticalAlign=top;spacingLeft=4;spacingRight=4;overflow=hidden;rotatable=0;points=[[0,0.5],[1,0.5]];portConstraint=eastwest;whiteSpace=wrap;html=1;shadow=0;fontFamily=Helvetica;fontSize=10;fontColor=default;startSize=30;fontStyle=1;rounded=1;" parent="1" vertex="1">
                    <mxGeometry x="2378.5" y="495" width="37" height="21" as="geometry"/>
                </mxCell>
                <mxCell id="651" value="" style="edgeStyle=elbowEdgeStyle;elbow=horizontal;endArrow=classic;html=1;curved=0;rounded=1;endSize=8;startSize=8;labelBackgroundColor=default;strokeColor=default;fontFamily=Helvetica;fontSize=11;fontColor=default;shape=connector;" parent="1" edge="1">
                    <mxGeometry width="50" height="50" relative="1" as="geometry">
                        <mxPoint x="2407.5" y="521" as="sourcePoint"/>
                        <mxPoint x="2405" y="182" as="targetPoint"/>
                        <Array as="points">
                            <mxPoint x="2357" y="356"/>
                            <mxPoint x="2376.5" y="461"/>
                            <mxPoint x="2374.5" y="471"/>
                            <mxPoint x="2374.5" y="467"/>
                            <mxPoint x="2443.44" y="524.5"/>
                            <mxPoint x="2444.44" y="471.5"/>
                        </Array>
                    </mxGeometry>
                </mxCell>
                <mxCell id="653" value="" style="edgeStyle=orthogonalEdgeStyle;endArrow=classic;html=1;rounded=1;endSize=8;startSize=8;labelBackgroundColor=default;strokeColor=default;fontFamily=Helvetica;fontSize=11;fontColor=default;shape=connector;elbow=vertical;" parent="1" edge="1">
                    <mxGeometry width="50" height="50" relative="1" as="geometry">
                        <mxPoint x="2409" y="417" as="sourcePoint"/>
                        <mxPoint x="2460" y="271" as="targetPoint"/>
                        <Array as="points">
                            <mxPoint x="2339" y="417"/>
                            <mxPoint x="2339" y="249"/>
                            <mxPoint x="2460" y="249"/>
                        </Array>
                    </mxGeometry>
                </mxCell>
                <mxCell id="654" value="成功" style="text;strokeColor=none;fillColor=none;align=left;verticalAlign=top;spacingLeft=4;spacingRight=4;overflow=hidden;rotatable=0;points=[[0,0.5],[1,0.5]];portConstraint=eastwest;whiteSpace=wrap;html=1;shadow=0;fontFamily=Helvetica;fontSize=10;fontColor=default;startSize=30;fontStyle=1;rounded=1;" parent="1" vertex="1">
                    <mxGeometry x="2377" y="385" width="37" height="21" as="geometry"/>
                </mxCell>
                <mxCell id="655" value="" style="edgeStyle=elbowEdgeStyle;elbow=horizontal;endArrow=classic;html=1;curved=0;rounded=1;endSize=8;startSize=8;entryX=0.995;entryY=0.241;entryDx=0;entryDy=0;entryPerimeter=0;" parent="1" target="599" edge="1">
                    <mxGeometry width="50" height="50" relative="1" as="geometry">
                        <mxPoint x="2738" y="242.5" as="sourcePoint"/>
                        <mxPoint x="2688" y="357.5" as="targetPoint"/>
                        <Array as="points">
                            <mxPoint x="2693" y="228.5"/>
                            <mxPoint x="2651" y="204.5"/>
                            <mxPoint x="2671" y="206.5"/>
                        </Array>
                    </mxGeometry>
                </mxCell>
                <mxCell id="657" value="" style="edgeStyle=orthogonalEdgeStyle;elbow=vertical;endArrow=classic;html=1;rounded=1;endSize=8;startSize=8;" parent="1" edge="1">
                    <mxGeometry width="50" height="50" relative="1" as="geometry">
                        <mxPoint x="2737" y="274.5" as="sourcePoint"/>
                        <mxPoint x="2538" y="268.5" as="targetPoint"/>
                        <Array as="points">
                            <mxPoint x="2663" y="274.5"/>
                            <mxPoint x="2663" y="246.5"/>
                            <mxPoint x="2538" y="246.5"/>
                        </Array>
                    </mxGeometry>
                </mxCell>
                <mxCell id="658" value="" style="edgeStyle=orthogonalEdgeStyle;elbow=vertical;endArrow=classic;html=1;rounded=1;endSize=8;startSize=8;" parent="1" edge="1">
                    <mxGeometry width="50" height="50" relative="1" as="geometry">
                        <mxPoint x="2738" y="307.5" as="sourcePoint"/>
                        <mxPoint x="2497" y="375.5" as="targetPoint"/>
                        <Array as="points">
                            <mxPoint x="2738" y="307.5"/>
                            <mxPoint x="2697" y="307.5"/>
                            <mxPoint x="2697" y="324.5"/>
                            <mxPoint x="2611" y="324.5"/>
                            <mxPoint x="2611" y="353.5"/>
                            <mxPoint x="2497" y="353.5"/>
                        </Array>
                    </mxGeometry>
                </mxCell>
                <mxCell id="659" value="" style="edgeStyle=orthogonalEdgeStyle;elbow=vertical;endArrow=classic;html=1;rounded=1;endSize=8;startSize=8;" parent="1" source="589" edge="1">
                    <mxGeometry width="50" height="50" relative="1" as="geometry">
                        <mxPoint x="2702" y="325.13" as="sourcePoint"/>
                        <mxPoint x="2499" y="471.5" as="targetPoint"/>
                        <Array as="points">
                            <mxPoint x="2682" y="337.5"/>
                            <mxPoint x="2682" y="449.5"/>
                            <mxPoint x="2499" y="449.5"/>
                        </Array>
                    </mxGeometry>
                </mxCell>
                <mxCell id="661" value="「顧客情報一覧」画面" style="swimlane;fontStyle=1;childLayout=stackLayout;horizontal=1;startSize=30;horizontalStack=0;resizeParent=1;resizeParentMax=0;resizeLast=0;collapsible=1;marginBottom=0;whiteSpace=wrap;html=1;shadow=0;strokeColor=#d6b656;fontFamily=Helvetica;fontSize=12;fillColor=#fff2cc;align=center;rounded=1;" parent="1" vertex="1">
                    <mxGeometry x="2105" y="173" width="180" height="60" as="geometry"/>
                </mxCell>
                <mxCell id="662" value="「詳細」をクリック" style="text;align=center;verticalAlign=middle;spacingLeft=4;spacingRight=4;overflow=hidden;points=[[0,0.5],[1,0.5]];portConstraint=eastwest;rotatable=0;whiteSpace=wrap;html=1;shadow=0;fontFamily=Helvetica;fontSize=12;strokeColor=#D6B656;rounded=1;" parent="661" vertex="1">
                    <mxGeometry y="30" width="180" height="30" as="geometry"/>
                </mxCell>
                <mxCell id="663" value="「顧客情報詳細」画面" style="swimlane;fontStyle=1;childLayout=stackLayout;horizontal=1;startSize=30;horizontalStack=0;resizeParent=1;resizeParentMax=0;resizeLast=0;collapsible=1;marginBottom=0;whiteSpace=wrap;html=1;shadow=0;strokeColor=#d6b656;fontFamily=Helvetica;fontSize=12;fillColor=#fff2cc;align=center;rounded=1;" parent="1" vertex="1">
                    <mxGeometry x="2105" y="272.5" width="181" height="90" as="geometry"/>
                </mxCell>
                <mxCell id="665" value="「会員状況更新」をクリック" style="text;align=center;verticalAlign=middle;spacingLeft=4;spacingRight=4;overflow=hidden;points=[[0,0.5],[1,0.5]];portConstraint=eastwest;rotatable=0;whiteSpace=wrap;html=1;shadow=0;fontFamily=Helvetica;fontSize=12;strokeColor=#D6B656;rounded=1;" parent="663" vertex="1">
                    <mxGeometry y="30" width="181" height="30" as="geometry"/>
                </mxCell>
                <mxCell id="664" value="「詳細」をクリック" style="text;align=center;verticalAlign=middle;spacingLeft=4;spacingRight=4;overflow=hidden;points=[[0,0.5],[1,0.5]];portConstraint=eastwest;rotatable=0;whiteSpace=wrap;html=1;shadow=0;fontFamily=Helvetica;fontSize=12;strokeColor=#D6B656;rounded=1;" parent="663" vertex="1">
                    <mxGeometry y="60" width="181" height="30" as="geometry"/>
                </mxCell>
                <mxCell id="666" value="「注文履歴一覧」画面" style="swimlane;fontStyle=1;childLayout=stackLayout;horizontal=1;startSize=30;horizontalStack=0;resizeParent=1;resizeParentMax=0;resizeLast=0;collapsible=1;marginBottom=0;whiteSpace=wrap;html=1;shadow=0;strokeColor=#d6b656;fontFamily=Helvetica;fontSize=12;fillColor=#fff2cc;align=center;rounded=1;" parent="1" vertex="1">
                    <mxGeometry x="1816" y="172.5" width="180" height="60" as="geometry"/>
                </mxCell>
                <mxCell id="667" value="「詳細」をクリック" style="text;align=center;verticalAlign=middle;spacingLeft=4;spacingRight=4;overflow=hidden;points=[[0,0.5],[1,0.5]];portConstraint=eastwest;rotatable=0;whiteSpace=wrap;html=1;shadow=0;fontFamily=Helvetica;fontSize=12;strokeColor=#D6B656;rounded=1;" parent="666" vertex="1">
                    <mxGeometry y="30" width="180" height="30" as="geometry"/>
                </mxCell>
                <mxCell id="668" value="「顧客情報詳細」画面" style="swimlane;fontStyle=1;childLayout=stackLayout;horizontal=1;startSize=30;horizontalStack=0;resizeParent=1;resizeParentMax=0;resizeLast=0;collapsible=1;marginBottom=0;whiteSpace=wrap;html=1;shadow=0;strokeColor=#d6b656;fontFamily=Helvetica;fontSize=12;fillColor=#fff2cc;align=center;rounded=1;" parent="1" vertex="1">
                    <mxGeometry x="1816" y="274" width="181" height="60" as="geometry"/>
                </mxCell>
                <mxCell id="669" value="「注文状況更新」をクリック" style="text;align=center;verticalAlign=middle;spacingLeft=4;spacingRight=4;overflow=hidden;points=[[0,0.5],[1,0.5]];portConstraint=eastwest;rotatable=0;whiteSpace=wrap;html=1;shadow=0;fontFamily=Helvetica;fontSize=12;strokeColor=#D6B656;rounded=1;" parent="668" vertex="1">
                    <mxGeometry y="30" width="181" height="30" as="geometry"/>
                </mxCell>
                <mxCell id="671" value="" style="edgeStyle=segmentEdgeStyle;endArrow=classic;html=1;curved=0;rounded=1;endSize=8;startSize=8;labelBackgroundColor=default;strokeColor=default;fontFamily=Helvetica;fontSize=11;fontColor=default;shape=connector;" parent="1" edge="1">
                    <mxGeometry width="50" height="50" relative="1" as="geometry">
                        <mxPoint x="1904" y="238" as="sourcePoint"/>
                        <mxPoint x="1904" y="274" as="targetPoint"/>
                        <Array as="points">
                            <mxPoint x="1904.5" y="274"/>
                            <mxPoint x="1904.5" y="274"/>
                        </Array>
                    </mxGeometry>
                </mxCell>
                <mxCell id="672" value="" style="endArrow=classic;html=1;fontFamily=Helvetica;fontSize=12;fontColor=default;startSize=30;edgeStyle=elbowEdgeStyle;elbow=vertical;" parent="1" edge="1">
                    <mxGeometry width="50" height="50" relative="1" as="geometry">
                        <mxPoint x="2269.49" y="96.5" as="sourcePoint"/>
                        <mxPoint x="2199" y="174" as="targetPoint"/>
                        <Array as="points">
                            <mxPoint x="2233.99" y="120.5"/>
                        </Array>
                    </mxGeometry>
                </mxCell>
                <mxCell id="673" value="" style="endArrow=classic;html=1;fontFamily=Helvetica;fontSize=12;fontColor=default;startSize=30;edgeStyle=elbowEdgeStyle;elbow=vertical;entryX=0.483;entryY=0.008;entryDx=0;entryDy=0;entryPerimeter=0;" parent="1" target="666" edge="1">
                    <mxGeometry width="50" height="50" relative="1" as="geometry">
                        <mxPoint x="2073.5299999999997" y="93.48" as="sourcePoint"/>
                        <mxPoint x="1949" y="168.99999999999997" as="targetPoint"/>
                        <Array as="points">
                            <mxPoint x="2038.0299999999997" y="117.48"/>
                        </Array>
                    </mxGeometry>
                </mxCell>
                <mxCell id="674" value="" style="endArrow=classic;html=1;fontFamily=Helvetica;fontSize=12;fontColor=default;startSize=30;edgeStyle=orthogonalEdgeStyle;elbow=vertical;curved=1;" parent="1" edge="1">
                    <mxGeometry width="50" height="50" relative="1" as="geometry">
                        <mxPoint x="2001" y="323.88" as="sourcePoint"/>
                        <mxPoint x="1999" y="296.88" as="targetPoint"/>
                        <Array as="points">
                            <mxPoint x="2043" y="323.88"/>
                            <mxPoint x="2043" y="296.88"/>
                        </Array>
                    </mxGeometry>
                </mxCell>
                <mxCell id="675" value="失敗" style="text;strokeColor=none;fillColor=none;align=left;verticalAlign=top;spacingLeft=4;spacingRight=4;overflow=hidden;rotatable=0;points=[[0,0.5],[1,0.5]];portConstraint=eastwest;whiteSpace=wrap;html=1;shadow=0;fontFamily=Helvetica;fontSize=10;fontColor=default;startSize=30;fontStyle=1;rounded=1;" parent="1" vertex="1">
                    <mxGeometry x="2015" y="273" width="37" height="21" as="geometry"/>
                </mxCell>
                <mxCell id="676" value="" style="edgeStyle=segmentEdgeStyle;endArrow=classic;html=1;curved=0;rounded=1;endSize=8;startSize=8;elbow=vertical;" parent="1" edge="1">
                    <mxGeometry width="50" height="50" relative="1" as="geometry">
                        <mxPoint x="1811" y="321" as="sourcePoint"/>
                        <mxPoint x="1857" y="173" as="targetPoint"/>
                        <Array as="points">
                            <mxPoint x="1814" y="321"/>
                            <mxPoint x="1788" y="321"/>
                            <mxPoint x="1788" y="144"/>
                            <mxPoint x="1857" y="144"/>
                        </Array>
                    </mxGeometry>
                </mxCell>
                <mxCell id="677" value="成功" style="text;strokeColor=none;fillColor=none;align=left;verticalAlign=top;spacingLeft=4;spacingRight=4;overflow=hidden;rotatable=0;points=[[0,0.5],[1,0.5]];portConstraint=eastwest;whiteSpace=wrap;html=1;shadow=0;fontFamily=Helvetica;fontSize=10;fontColor=default;startSize=30;fontStyle=1;rounded=1;" parent="1" vertex="1">
                    <mxGeometry x="1777" y="327" width="37" height="21" as="geometry"/>
                </mxCell>
                <mxCell id="678" value="" style="edgeStyle=segmentEdgeStyle;endArrow=classic;html=1;curved=0;rounded=1;endSize=8;startSize=8;labelBackgroundColor=default;strokeColor=default;fontFamily=Helvetica;fontSize=11;fontColor=default;shape=connector;" parent="1" edge="1">
                    <mxGeometry width="50" height="50" relative="1" as="geometry">
                        <mxPoint x="2187" y="234.5" as="sourcePoint"/>
                        <mxPoint x="2187" y="270.5" as="targetPoint"/>
                        <Array as="points">
                            <mxPoint x="2187.5" y="270.5"/>
                            <mxPoint x="2187.5" y="270.5"/>
                        </Array>
                    </mxGeometry>
                </mxCell>
                <mxCell id="680" value="" style="endArrow=classic;html=1;fontFamily=Helvetica;fontSize=12;fontColor=default;startSize=30;edgeStyle=orthogonalEdgeStyle;elbow=vertical;curved=1;" parent="1" edge="1">
                    <mxGeometry width="50" height="50" relative="1" as="geometry">
                        <mxPoint x="2291" y="321.98000000000013" as="sourcePoint"/>
                        <mxPoint x="2289" y="294.98000000000013" as="targetPoint"/>
                        <Array as="points">
                            <mxPoint x="2333" y="321.98"/>
                            <mxPoint x="2333" y="294.98"/>
                        </Array>
                    </mxGeometry>
                </mxCell>
                <mxCell id="681" value="失敗" style="text;strokeColor=none;fillColor=none;align=left;verticalAlign=top;spacingLeft=4;spacingRight=4;overflow=hidden;rotatable=0;points=[[0,0.5],[1,0.5]];portConstraint=eastwest;whiteSpace=wrap;html=1;shadow=0;fontFamily=Helvetica;fontSize=10;fontColor=default;startSize=30;fontStyle=1;rounded=1;" parent="1" vertex="1">
                    <mxGeometry x="2298" y="269.1" width="37" height="21" as="geometry"/>
                </mxCell>
                <mxCell id="682" value="" style="edgeStyle=segmentEdgeStyle;endArrow=classic;html=1;curved=0;rounded=1;endSize=8;startSize=8;elbow=vertical;exitX=-0.028;exitY=0.55;exitDx=0;exitDy=0;exitPerimeter=0;" parent="1" source="664" edge="1">
                    <mxGeometry width="50" height="50" relative="1" as="geometry">
                        <mxPoint x="2078" y="349" as="sourcePoint"/>
                        <mxPoint x="1931" y="272" as="targetPoint"/>
                        <Array as="points">
                            <mxPoint x="2055" y="349"/>
                            <mxPoint x="2055" y="245"/>
                            <mxPoint x="1931" y="245"/>
                        </Array>
                    </mxGeometry>
                </mxCell>
                <mxCell id="683" value="" style="edgeStyle=segmentEdgeStyle;endArrow=classic;html=1;curved=0;rounded=1;endSize=8;startSize=8;elbow=vertical;" parent="1" edge="1">
                    <mxGeometry width="50" height="50" relative="1" as="geometry">
                        <mxPoint x="2101" y="319" as="sourcePoint"/>
                        <mxPoint x="2147" y="171" as="targetPoint"/>
                        <Array as="points">
                            <mxPoint x="2072" y="319"/>
                            <mxPoint x="2072" y="142"/>
                            <mxPoint x="2147" y="142"/>
                        </Array>
                    </mxGeometry>
                </mxCell>
                <mxCell id="684" value="成功" style="text;strokeColor=none;fillColor=none;align=left;verticalAlign=top;spacingLeft=4;spacingRight=4;overflow=hidden;rotatable=0;points=[[0,0.5],[1,0.5]];portConstraint=eastwest;whiteSpace=wrap;html=1;shadow=0;fontFamily=Helvetica;fontSize=10;fontColor=default;startSize=30;fontStyle=1;rounded=1;" parent="1" vertex="1">
                    <mxGeometry x="2075" y="285" width="37" height="21" as="geometry"/>
                </mxCell>
                <mxCell id="689" value="失敗" style="text;strokeColor=none;fillColor=none;align=left;verticalAlign=top;spacingLeft=4;spacingRight=4;overflow=hidden;rotatable=0;points=[[0,0.5],[1,0.5]];portConstraint=eastwest;whiteSpace=wrap;html=1;shadow=0;fontFamily=Helvetica;fontSize=10;fontColor=default;startSize=30;fontStyle=1;rounded=1;" parent="1" vertex="1">
                    <mxGeometry x="1820" y="444.5" width="37" height="21" as="geometry"/>
                </mxCell>
                <mxCell id="690" value="" style="endArrow=classic;html=1;fontFamily=Helvetica;fontSize=12;fontColor=default;startSize=30;edgeStyle=orthogonalEdgeStyle;elbow=vertical;curved=1;" parent="1" edge="1">
                    <mxGeometry width="50" height="50" relative="1" as="geometry">
                        <mxPoint x="1779" y="461" as="sourcePoint"/>
                        <mxPoint x="1777" y="434" as="targetPoint"/>
                        <Array as="points">
                            <mxPoint x="1819" y="461"/>
                            <mxPoint x="1819" y="434"/>
                        </Array>
                    </mxGeometry>
                </mxCell>
                <mxCell id="691" value="" style="edgeStyle=elbowEdgeStyle;elbow=horizontal;endArrow=classic;html=1;curved=0;rounded=1;endSize=8;startSize=8;exitX=-0.01;exitY=0.567;exitDx=0;exitDy=0;exitPerimeter=0;fontStyle=0" parent="1" source="740" edge="1">
                    <mxGeometry width="50" height="50" relative="1" as="geometry">
                        <mxPoint x="-577" y="499.27" as="sourcePoint"/>
                        <mxPoint x="63" y="153" as="targetPoint"/>
                        <Array as="points">
                            <mxPoint x="-585" y="344"/>
                            <mxPoint x="-587" y="511"/>
                            <mxPoint x="-587" y="341"/>
                            <mxPoint x="-542" y="385"/>
                            <mxPoint x="-558" y="341"/>
                        </Array>
                    </mxGeometry>
                </mxCell>
                <mxCell id="692" value="失敗" style="text;strokeColor=none;fillColor=none;align=left;verticalAlign=top;spacingLeft=4;spacingRight=4;overflow=hidden;rotatable=0;points=[[0,0.5],[1,0.5]];portConstraint=eastwest;whiteSpace=wrap;html=1;shadow=0;fontFamily=Helvetica;fontSize=10;fontColor=default;startSize=30;fontStyle=1;rounded=1;" parent="1" vertex="1">
                    <mxGeometry x="7" y="250.13" width="37" height="21" as="geometry"/>
                </mxCell>
                <mxCell id="693" value="" style="endArrow=classic;html=1;fontFamily=Helvetica;fontSize=12;fontColor=default;startSize=30;edgeStyle=orthogonalEdgeStyle;elbow=vertical;curved=1;" parent="1" edge="1">
                    <mxGeometry width="50" height="50" relative="1" as="geometry">
                        <mxPoint x="-15" y="304.13" as="sourcePoint"/>
                        <mxPoint x="-17" y="277.13" as="targetPoint"/>
                        <Array as="points">
                            <mxPoint x="27" y="304.13"/>
                            <mxPoint x="27" y="277.13"/>
                        </Array>
                    </mxGeometry>
                </mxCell>
                <mxCell id="694" value="失敗" style="text;strokeColor=none;fillColor=none;align=left;verticalAlign=top;spacingLeft=4;spacingRight=4;overflow=hidden;rotatable=0;points=[[0,0.5],[1,0.5]];portConstraint=eastwest;whiteSpace=wrap;html=1;shadow=0;fontFamily=Helvetica;fontSize=10;fontColor=default;startSize=30;fontStyle=1;rounded=1;" parent="1" vertex="1">
                    <mxGeometry x="-328" y="475" width="37" height="21" as="geometry"/>
                </mxCell>
                <mxCell id="695" value="" style="endArrow=classic;html=1;fontFamily=Helvetica;fontSize=12;fontColor=default;startSize=30;edgeStyle=orthogonalEdgeStyle;elbow=vertical;curved=1;fontStyle=0" parent="1" edge="1">
                    <mxGeometry width="50" height="50" relative="1" as="geometry">
                        <mxPoint x="-340" y="529.5" as="sourcePoint"/>
                        <mxPoint x="-342" y="502.5" as="targetPoint"/>
                        <Array as="points">
                            <mxPoint x="-298" y="529.5"/>
                            <mxPoint x="-298" y="502.5"/>
                        </Array>
                    </mxGeometry>
                </mxCell>
                <mxCell id="696" value="「レビュー一覧」画面" style="swimlane;fontStyle=1;childLayout=stackLayout;horizontal=1;startSize=30;horizontalStack=0;resizeParent=1;resizeParentMax=0;resizeLast=0;collapsible=1;marginBottom=0;whiteSpace=wrap;html=1;shadow=0;strokeColor=#d6b656;fontFamily=Helvetica;fontSize=12;fillColor=#fff2cc;align=center;rounded=1;" vertex="1" parent="1">
                    <mxGeometry x="-854" y="362.5" width="183" height="60" as="geometry"/>
                </mxCell>
                <mxCell id="697" value="「戻る」をクリック" style="text;align=center;verticalAlign=middle;spacingLeft=4;spacingRight=4;overflow=hidden;points=[[0,0.5],[1,0.5]];portConstraint=eastwest;rotatable=0;whiteSpace=wrap;html=1;shadow=0;fontFamily=Helvetica;fontSize=12;strokeColor=#D6B656;rounded=1;" vertex="1" parent="696">
                    <mxGeometry y="30" width="183" height="30" as="geometry"/>
                </mxCell>
                <mxCell id="698" value="" style="edgeStyle=segmentEdgeStyle;endArrow=classic;html=1;curved=0;rounded=1;endSize=8;startSize=8;labelBackgroundColor=default;strokeColor=default;fontFamily=Helvetica;fontSize=11;fontColor=default;shape=connector;entryX=0.383;entryY=-0.042;entryDx=0;entryDy=0;entryPerimeter=0;fontStyle=0" edge="1" parent="1" target="696">
                    <mxGeometry width="50" height="50" relative="1" as="geometry">
                        <mxPoint x="-543" y="381" as="sourcePoint"/>
                        <mxPoint x="-788" y="335" as="targetPoint"/>
                        <Array as="points">
                            <mxPoint x="-605" y="381"/>
                            <mxPoint x="-605" y="335"/>
                            <mxPoint x="-784" y="335"/>
                        </Array>
                    </mxGeometry>
                </mxCell>
                <mxCell id="701" value="" style="edgeStyle=elbowEdgeStyle;elbow=horizontal;endArrow=classic;html=1;curved=0;rounded=1;endSize=8;startSize=8;exitX=0.011;exitY=0.75;exitDx=0;exitDy=0;exitPerimeter=0;fontStyle=0" edge="1" parent="1" source="697">
                    <mxGeometry width="50" height="50" relative="1" as="geometry">
                        <mxPoint x="-684" y="288" as="sourcePoint"/>
                        <mxPoint x="-542" y="320" as="targetPoint"/>
                        <Array as="points">
                            <mxPoint x="-923" y="367"/>
                        </Array>
                    </mxGeometry>
                </mxCell>
                <mxCell id="702" value="失敗" style="text;strokeColor=none;fillColor=none;align=left;verticalAlign=top;spacingLeft=4;spacingRight=4;overflow=hidden;rotatable=0;points=[[0,0.5],[1,0.5]];portConstraint=eastwest;whiteSpace=wrap;html=1;shadow=0;fontFamily=Helvetica;fontSize=10;fontColor=default;startSize=30;fontStyle=1;rounded=1;" vertex="1" parent="1">
                    <mxGeometry x="-653" y="351.75" width="37" height="21" as="geometry"/>
                </mxCell>
                <mxCell id="703" value="" style="endArrow=classic;html=1;fontFamily=Helvetica;fontSize=12;fontColor=default;startSize=30;edgeStyle=orthogonalEdgeStyle;elbow=vertical;curved=1;fontStyle=0" edge="1" parent="1">
                    <mxGeometry width="50" height="50" relative="1" as="geometry">
                        <mxPoint x="-665" y="406.25" as="sourcePoint"/>
                        <mxPoint x="-667" y="379.25" as="targetPoint"/>
                        <Array as="points">
                            <mxPoint x="-623" y="406.25"/>
                            <mxPoint x="-623" y="379.25"/>
                        </Array>
                    </mxGeometry>
                </mxCell>
                <mxCell id="710" value="" style="edgeStyle=elbowEdgeStyle;elbow=horizontal;endArrow=classic;html=1;curved=0;rounded=1;endSize=8;startSize=8;fontStyle=0" edge="1" parent="1" source="741">
                    <mxGeometry width="50" height="50" relative="1" as="geometry">
                        <mxPoint x="-878.9870000000001" y="505" as="sourcePoint"/>
                        <mxPoint x="-859" y="378" as="targetPoint"/>
                        <Array as="points">
                            <mxPoint x="-891" y="477"/>
                        </Array>
                    </mxGeometry>
                </mxCell>
                <mxCell id="711" value="" style="edgeStyle=elbowEdgeStyle;elbow=horizontal;endArrow=classic;html=1;curved=0;rounded=1;endSize=8;startSize=8;exitX=-0.01;exitY=0.567;exitDx=0;exitDy=0;exitPerimeter=0;fontStyle=0" edge="1" parent="1" source="516">
                    <mxGeometry width="50" height="50" relative="1" as="geometry">
                        <mxPoint x="-864.03" y="535" as="sourcePoint"/>
                        <mxPoint x="-859" y="366" as="targetPoint"/>
                        <Array as="points">
                            <mxPoint x="-910" y="478"/>
                            <mxPoint x="-1051" y="447"/>
                        </Array>
                    </mxGeometry>
                </mxCell>
                <mxCell id="718" value="「レビュー一覧」画面" style="swimlane;fontStyle=1;childLayout=stackLayout;horizontal=1;startSize=30;horizontalStack=0;resizeParent=1;resizeParentMax=0;resizeLast=0;collapsible=1;marginBottom=0;whiteSpace=wrap;html=1;shadow=0;strokeColor=#d6b656;fontFamily=Helvetica;fontSize=12;fillColor=#fff2cc;align=center;rounded=1;" vertex="1" parent="1">
                    <mxGeometry x="1239" y="449.27" width="183" height="60" as="geometry"/>
                </mxCell>
                <mxCell id="719" value="「戻る」をクリック" style="text;align=center;verticalAlign=middle;spacingLeft=4;spacingRight=4;overflow=hidden;points=[[0,0.5],[1,0.5]];portConstraint=eastwest;rotatable=0;whiteSpace=wrap;html=1;shadow=0;fontFamily=Helvetica;fontSize=12;strokeColor=#D6B656;rounded=1;" vertex="1" parent="718">
                    <mxGeometry y="30" width="183" height="30" as="geometry"/>
                </mxCell>
                <mxCell id="733" value="" style="edgeStyle=segmentEdgeStyle;endArrow=classic;html=1;curved=0;rounded=1;endSize=8;startSize=8;exitX=1.027;exitY=0.491;exitDx=0;exitDy=0;exitPerimeter=0;" edge="1" parent="1" source="731">
                    <mxGeometry width="50" height="50" relative="1" as="geometry">
                        <mxPoint x="1111" y="363" as="sourcePoint"/>
                        <mxPoint x="977" y="447" as="targetPoint"/>
                        <Array as="points">
                            <mxPoint x="1134" y="324"/>
                            <mxPoint x="1134" y="416"/>
                            <mxPoint x="977" y="416"/>
                        </Array>
                    </mxGeometry>
                </mxCell>
                <mxCell id="734" value="" style="endArrow=classic;html=1;fontFamily=Helvetica;fontSize=12;fontColor=default;startSize=30;edgeStyle=elbowEdgeStyle;elbow=vertical;" edge="1" parent="1">
                    <mxGeometry width="50" height="50" relative="1" as="geometry">
                        <mxPoint x="1375" y="95" as="sourcePoint"/>
                        <mxPoint x="1507" y="137" as="targetPoint"/>
                        <Array as="points">
                            <mxPoint x="1379" y="124"/>
                        </Array>
                    </mxGeometry>
                </mxCell>
                <mxCell id="735" value="" style="edgeStyle=elbowEdgeStyle;elbow=horizontal;endArrow=classic;html=1;curved=0;rounded=1;endSize=8;startSize=8;entryX=0;entryY=0.233;entryDx=0;entryDy=0;entryPerimeter=0;" edge="1" parent="1" target="718">
                    <mxGeometry width="50" height="50" relative="1" as="geometry">
                        <mxPoint x="1074" y="355" as="sourcePoint"/>
                        <mxPoint x="1240" y="336" as="targetPoint"/>
                        <Array as="points">
                            <mxPoint x="1202" y="406"/>
                        </Array>
                    </mxGeometry>
                </mxCell>
                <mxCell id="739" value="" style="edgeStyle=elbowEdgeStyle;elbow=horizontal;endArrow=classic;html=1;curved=0;rounded=1;endSize=8;startSize=8;entryX=0.328;entryY=1.115;entryDx=0;entryDy=0;entryPerimeter=0;" edge="1" parent="1" target="268">
                    <mxGeometry width="50" height="50" relative="1" as="geometry">
                        <mxPoint x="1072" y="381.5" as="sourcePoint"/>
                        <mxPoint x="1238" y="362.5" as="targetPoint"/>
                        <Array as="points">
                            <mxPoint x="1165" y="298"/>
                        </Array>
                    </mxGeometry>
                </mxCell>
                <mxCell id="744" value="失敗" style="text;strokeColor=none;fillColor=none;align=left;verticalAlign=top;spacingLeft=4;spacingRight=4;overflow=hidden;rotatable=0;points=[[0,0.5],[1,0.5]];portConstraint=eastwest;whiteSpace=wrap;html=1;shadow=0;fontFamily=Helvetica;fontSize=10;fontColor=default;startSize=30;fontStyle=1;rounded=1;" vertex="1" parent="1">
                    <mxGeometry x="-631" y="499" width="37" height="21" as="geometry"/>
                </mxCell>
                <mxCell id="745" value="" style="endArrow=classic;html=1;fontFamily=Helvetica;fontSize=12;fontColor=default;startSize=30;edgeStyle=orthogonalEdgeStyle;elbow=vertical;curved=1;fontStyle=0" edge="1" parent="1">
                    <mxGeometry width="50" height="50" relative="1" as="geometry">
                        <mxPoint x="-552" y="549.5" as="sourcePoint"/>
                        <mxPoint x="-554" y="489.5" as="targetPoint"/>
                        <Array as="points">
                            <mxPoint x="-599" y="549.5"/>
                            <mxPoint x="-599" y="489.5"/>
                        </Array>
                    </mxGeometry>
                </mxCell>
                <mxCell id="746" value="成功" style="text;strokeColor=none;fillColor=none;align=left;verticalAlign=top;spacingLeft=4;spacingRight=4;overflow=hidden;rotatable=0;points=[[0,0.5],[1,0.5]];portConstraint=eastwest;whiteSpace=wrap;html=1;shadow=0;fontFamily=Helvetica;fontSize=10;fontColor=default;startSize=30;fontStyle=1;rounded=1;" vertex="1" parent="1">
                    <mxGeometry x="-581" y="560" width="37" height="21" as="geometry"/>
                </mxCell>
                <mxCell id="749" value="失敗" style="text;strokeColor=none;fillColor=none;align=left;verticalAlign=top;spacingLeft=4;spacingRight=4;overflow=hidden;rotatable=0;points=[[0,0.5],[1,0.5]];portConstraint=eastwest;whiteSpace=wrap;html=1;shadow=0;fontFamily=Helvetica;fontSize=10;fontColor=default;startSize=30;fontStyle=1;rounded=1;" vertex="1" parent="1">
                    <mxGeometry x="1431" y="434" width="37" height="21" as="geometry"/>
                </mxCell>
                <mxCell id="750" value="" style="endArrow=classic;html=1;fontFamily=Helvetica;fontSize=12;fontColor=default;startSize=30;edgeStyle=orthogonalEdgeStyle;elbow=vertical;curved=1;" edge="1" parent="1">
                    <mxGeometry width="50" height="50" relative="1" as="geometry">
                        <mxPoint x="1426" y="490.52" as="sourcePoint"/>
                        <mxPoint x="1424" y="463.52" as="targetPoint"/>
                        <Array as="points">
                            <mxPoint x="1466" y="490.52"/>
                            <mxPoint x="1466" y="463.52"/>
                        </Array>
                    </mxGeometry>
                </mxCell>
                <mxCell id="751" value="" style="edgeStyle=elbowEdgeStyle;elbow=horizontal;endArrow=classic;html=1;curved=0;rounded=1;endSize=8;startSize=8;exitX=-0.016;exitY=0.533;exitDx=0;exitDy=0;exitPerimeter=0;" edge="1" parent="1" source="719">
                    <mxGeometry width="50" height="50" relative="1" as="geometry">
                        <mxPoint x="1246" y="356" as="sourcePoint"/>
                        <mxPoint x="1074" y="293" as="targetPoint"/>
                        <Array as="points">
                            <mxPoint x="1219" y="385"/>
                        </Array>
                    </mxGeometry>
                </mxCell>
                <mxCell id="752" value="" style="edgeStyle=segmentEdgeStyle;endArrow=classic;html=1;curved=0;rounded=1;endSize=8;startSize=8;labelBackgroundColor=default;strokeColor=default;fontFamily=Helvetica;fontSize=11;fontColor=default;shape=connector;exitX=1;exitY=0.5;exitDx=0;exitDy=0;" edge="1" parent="1" source="518">
                    <mxGeometry width="50" height="50" relative="1" as="geometry">
                        <mxPoint x="-347" y="409" as="sourcePoint"/>
                        <mxPoint x="-460" y="481" as="targetPoint"/>
                        <Array as="points">
                            <mxPoint x="-308" y="409"/>
                            <mxPoint x="-308" y="437"/>
                            <mxPoint x="-460" y="437"/>
                        </Array>
                    </mxGeometry>
                </mxCell>
                <mxCell id="754" value="「商品詳細」画面" style="swimlane;fontStyle=1;childLayout=stackLayout;horizontal=1;startSize=30;horizontalStack=0;resizeParent=1;resizeParentMax=0;resizeLast=0;collapsible=1;marginBottom=0;whiteSpace=wrap;html=1;shadow=0;strokeColor=#d6b656;fontFamily=Helvetica;fontSize=12;fillColor=#fff2cc;align=center;rounded=1;" vertex="1" parent="1">
                    <mxGeometry x="894.5" y="444.5" width="206" height="120" as="geometry"/>
                </mxCell>
                <mxCell id="766" value="" style="edgeStyle=segmentEdgeStyle;endArrow=classic;html=1;curved=0;rounded=1;endSize=8;startSize=8;labelBackgroundColor=default;strokeColor=default;fontFamily=Helvetica;fontSize=11;fontColor=default;shape=connector;fontStyle=0;" edge="1" parent="754">
                    <mxGeometry width="50" height="50" relative="1" as="geometry">
                        <mxPoint x="-7.5" y="-62.5" as="sourcePoint"/>
                        <mxPoint x="231.5" y="-233.5" as="targetPoint"/>
                        <Array as="points">
                            <mxPoint x="-28" y="-62"/>
                            <mxPoint x="-28" y="-184"/>
                            <mxPoint x="180" y="-184"/>
                            <mxPoint x="180" y="-212"/>
                            <mxPoint x="232" y="-212"/>
                        </Array>
                    </mxGeometry>
                </mxCell>
                <mxCell id="755" value="「カート追加」をクリック" style="text;align=center;verticalAlign=middle;spacingLeft=4;spacingRight=4;overflow=hidden;points=[[0,0.5],[1,0.5]];portConstraint=eastwest;rotatable=0;whiteSpace=wrap;html=1;shadow=0;fontFamily=Helvetica;fontSize=12;strokeColor=#D6B656;rounded=1;" vertex="1" parent="754">
                    <mxGeometry y="30" width="206" height="30" as="geometry"/>
                </mxCell>
                <mxCell id="756" value="「レビューを保存する」をクリック" style="text;align=center;verticalAlign=middle;spacingLeft=4;spacingRight=4;overflow=hidden;points=[[0,0.5],[1,0.5]];portConstraint=eastwest;rotatable=0;whiteSpace=wrap;html=1;shadow=0;fontFamily=Helvetica;fontSize=12;strokeColor=#D6B656;rounded=1;" vertex="1" parent="754">
                    <mxGeometry y="60" width="206" height="30" as="geometry"/>
                </mxCell>
                <mxCell id="757" value="「他のレビューを見る」をクリック" style="text;align=center;verticalAlign=middle;spacingLeft=4;spacingRight=4;overflow=hidden;points=[[0,0.5],[1,0.5]];portConstraint=eastwest;rotatable=0;whiteSpace=wrap;html=1;shadow=0;fontFamily=Helvetica;fontSize=12;strokeColor=#D6B656;rounded=1;" vertex="1" parent="754">
                    <mxGeometry y="90" width="206" height="30" as="geometry"/>
                </mxCell>
                <mxCell id="758" value="失敗" style="text;strokeColor=none;fillColor=none;align=left;verticalAlign=top;spacingLeft=4;spacingRight=4;overflow=hidden;rotatable=0;points=[[0,0.5],[1,0.5]];portConstraint=eastwest;whiteSpace=wrap;html=1;shadow=0;fontFamily=Helvetica;fontSize=10;fontColor=default;startSize=30;fontStyle=1;rounded=1;" vertex="1" parent="1">
                    <mxGeometry x="1113.5" y="447.5" width="37" height="21" as="geometry"/>
                </mxCell>
                <mxCell id="759" value="" style="endArrow=classic;html=1;fontFamily=Helvetica;fontSize=12;fontColor=default;startSize=30;edgeStyle=orthogonalEdgeStyle;elbow=vertical;curved=1;fontStyle=0" edge="1" parent="1">
                    <mxGeometry width="50" height="50" relative="1" as="geometry">
                        <mxPoint x="1101.5" y="502" as="sourcePoint"/>
                        <mxPoint x="1099.5" y="475" as="targetPoint"/>
                        <Array as="points">
                            <mxPoint x="1143.5" y="502"/>
                            <mxPoint x="1143.5" y="475"/>
                        </Array>
                    </mxGeometry>
                </mxCell>
                <mxCell id="765" value="" style="edgeStyle=segmentEdgeStyle;endArrow=classic;html=1;curved=0;rounded=1;endSize=8;startSize=8;labelBackgroundColor=default;strokeColor=default;fontFamily=Helvetica;fontSize=11;fontColor=default;shape=connector;fontStyle=0;entryX=0.296;entryY=-0.017;entryDx=0;entryDy=0;entryPerimeter=0;" edge="1" parent="1" target="515">
                    <mxGeometry width="50" height="50" relative="1" as="geometry">
                        <mxPoint x="-540" y="409" as="sourcePoint"/>
                        <mxPoint x="-497" y="467" as="targetPoint"/>
                        <Array as="points">
                            <mxPoint x="-617" y="409"/>
                            <mxPoint x="-617" y="444"/>
                            <mxPoint x="-491" y="444"/>
                        </Array>
                    </mxGeometry>
                </mxCell>
                <mxCell id="769" value="" style="edgeStyle=orthogonalEdgeStyle;endArrow=classic;html=1;rounded=1;endSize=8;startSize=8;labelBackgroundColor=default;strokeColor=default;fontFamily=Helvetica;fontSize=11;fontColor=default;shape=connector;exitX=1;exitY=0.5;exitDx=0;exitDy=0;" edge="1" parent="1" source="757">
                    <mxGeometry width="50" height="50" relative="1" as="geometry">
                        <mxPoint x="1146" y="550" as="sourcePoint"/>
                        <mxPoint x="1329" y="445" as="targetPoint"/>
                        <Array as="points">
                            <mxPoint x="1535" y="550"/>
                            <mxPoint x="1535" y="312"/>
                            <mxPoint x="1329" y="312"/>
                        </Array>
                    </mxGeometry>
                </mxCell>
                <mxCell id="770" value="" style="edgeStyle=orthogonalEdgeStyle;endArrow=classic;html=1;rounded=1;endSize=8;startSize=8;labelBackgroundColor=default;strokeColor=default;fontFamily=Helvetica;fontSize=11;fontColor=default;shape=connector;" edge="1" parent="1">
                    <mxGeometry width="50" height="50" relative="1" as="geometry">
                        <mxPoint x="893" y="525" as="sourcePoint"/>
                        <mxPoint x="1244" y="210" as="targetPoint"/>
                        <Array as="points">
                            <mxPoint x="893" y="523"/>
                            <mxPoint x="829" y="523"/>
                            <mxPoint x="829" y="251"/>
                            <mxPoint x="1244" y="251"/>
                        </Array>
                    </mxGeometry>
                </mxCell>
            </root>
        </mxGraphModel>
    </diagram>
</mxfile>